<?xml version="1.0" encoding="utf-8"?>
<!-- Generator: Adobe Illustrator 23.0.1, SVG Export Plug-In . SVG Version: 6.00 Build 0)  -->
<svg version="1.1" id="Layer_1" xmlns="http://www.w3.org/2000/svg" xmlns:xlink="http://www.w3.org/1999/xlink" x="0px" y="0px"
	 viewBox="0 0 860 708" style="enable-background:new 0 0 860 708;" xml:space="preserve">
<style type="text/css">
	.st0{opacity:0.2;fill:#C0C0C0;enable-background:new    ;}
	.st1{fill:#FFFFFF;}
	.st2{fill:none;stroke:#000000;stroke-miterlimit:10;}
	.st3{font-family:'Arial-BoldMT';}
	.st4{font-size:13px;}
	.st5{fill:none;stroke:#000000;stroke-miterlimit:10;stroke-dasharray:3;}
	.st6{font-family:'ArialMT';}
</style>
<g>
	<g>
		<g transform="translate(-22,-86) scale(1,1)">
			<rect x="175" y="103" class="st0" width="536" height="688"/>
		</g>
		<g transform="translate(-22,-86) scale(1,1)">
			<rect x="168" y="96" class="st1" width="536" height="688"/>
		</g>
		<g transform="translate(-22,-86) scale(1,1)">
			<path class="st2" d="M168,96h536v688H168V96z"/>
		</g>
		<g transform="translate(-22,-86) scale(1,1)">
			<g>
				<path class="st2" d="M0,0"/>
				<text transform="matrix(1 0 0 1 389.7542 115.5)" class="st3 st4">Application JPO</text>
			</g>
		</g>
		<g transform="translate(-22,-86) scale(1,1)">
			<path class="st1" d="M55.4,362c0-9.4,7.4-17,16.6-17s16.6,7.6,16.6,17c0,9.4-7.4,17-16.6,17S55.4,371.4,55.4,362z"/>
		</g>
		<g transform="translate(-22,-86) scale(1,1)">
			<path class="st2" d="M55.4,362c0-9.4,7.4-17,16.6-17s16.6,7.6,16.6,17c0,9.4-7.4,17-16.6,17S55.4,371.4,55.4,362z"/>
		</g>
		<g transform="translate(-22,-86) scale(1,1)">
			<path class="st2" d="M72,379v33"/>
		</g>
		<g transform="translate(-22,-86) scale(1,1)">
			<path class="st2" d="M54.5,391.4h35.1"/>
		</g>
		<g transform="translate(-22,-86) scale(1,1)">
			<path class="st2" d="M72,412l-24.3,34"/>
		</g>
		<g transform="translate(-22,-86) scale(1,1)">
			<path class="st2" d="M72,412l24.3,34"/>
		</g>
		<g transform="translate(-22,-86) scale(1,1)">
			<g>
				<path class="st2" d="M0,0"/>
				<text transform="matrix(1 0 0 1 50.4434 466.5)" class="st3 st4">Visiteur</text>
			</g>
		</g>
		<g transform="translate(-22,-86) scale(1,1)">
			<path class="st1" d="M799.4,154c0-9.4,7.4-17,16.6-17s16.6,7.6,16.6,17s-7.4,17-16.6,17S799.4,163.4,799.4,154z"/>
		</g>
		<g transform="translate(-22,-86) scale(1,1)">
			<path class="st2" d="M799.4,154c0-9.4,7.4-17,16.6-17s16.6,7.6,16.6,17s-7.4,17-16.6,17S799.4,163.4,799.4,154z"/>
		</g>
		<g transform="translate(-22,-86) scale(1,1)">
			<path class="st2" d="M816,171v33"/>
		</g>
		<g transform="translate(-22,-86) scale(1,1)">
			<path class="st2" d="M798.5,183.4h35.1"/>
		</g>
		<g transform="translate(-22,-86) scale(1,1)">
			<path class="st2" d="M816,204l-24.3,34"/>
		</g>
		<g transform="translate(-22,-86) scale(1,1)">
			<path class="st2" d="M816,204l24.3,34"/>
		</g>
		<g transform="translate(-22,-86) scale(1,1)">
			<g>
				<path class="st2" d="M0,0"/>
				<text transform="matrix(1 0 0 1 775.6638 258.5)" class="st3 st4">BDD Visiteurs</text>
			</g>
		</g>
		<g transform="translate(-22,-86) scale(1,1)">
			<path class="st1" d="M811.4,490c0-9.4,7.4-17,16.6-17s16.6,7.6,16.6,17c0,9.4-7.4,17-16.6,17S811.4,499.4,811.4,490z"/>
		</g>
		<g transform="translate(-22,-86) scale(1,1)">
			<path class="st2" d="M811.4,490c0-9.4,7.4-17,16.6-17s16.6,7.6,16.6,17c0,9.4-7.4,17-16.6,17S811.4,499.4,811.4,490z"/>
		</g>
		<g transform="translate(-22,-86) scale(1,1)">
			<path class="st2" d="M828,507v33"/>
		</g>
		<g transform="translate(-22,-86) scale(1,1)">
			<path class="st2" d="M810.5,519.4h35.1"/>
		</g>
		<g transform="translate(-22,-86) scale(1,1)">
			<path class="st2" d="M828,540l-24.3,34"/>
		</g>
		<g transform="translate(-22,-86) scale(1,1)">
			<path class="st2" d="M828,540l24.3,34"/>
		</g>
		<g transform="translate(-22,-86) scale(1,1)">
			<g>
				<path class="st2" d="M0,0"/>
				<text transform="matrix(1 0 0 1 792.9609 594.5)" class="st3 st4">BDD Ecoles</text>
			</g>
		</g>
		<g transform="translate(-22,-86) scale(1,1)">
			<path class="st0" d="M231,280c0-9.4,28.7-17,64-17s64,7.6,64,17s-28.7,17-64,17S231,289.4,231,280z"/>
		</g>
		<g transform="translate(-22,-86) scale(1,1)">
			<path class="st1" d="M224,273c0-9.4,28.7-17,64-17s64,7.6,64,17s-28.7,17-64,17S224,282.4,224,273z"/>
		</g>
		<g transform="translate(-22,-86) scale(1,1)">
			<path class="st2" d="M224,273c0-9.4,28.7-17,64-17s64,7.6,64,17s-28.7,17-64,17S224,282.4,224,273z"/>
		</g>
		<g transform="translate(-22,-86) scale(1,1)">
			<g>
				<path class="st2" d="M0,0"/>
				<text transform="matrix(1 0 0 1 249.6982 280)" class="st3 st4">Se connecter</text>
			</g>
		</g>
		<g transform="translate(-22,-86) scale(1,1)">
			<path class="st0" d="M351,216c0-9.4,28.7-17,64-17s64,7.6,64,17s-28.7,17-64,17S351,225.4,351,216z"/>
		</g>
		<g transform="translate(-22,-86) scale(1,1)">
			<path class="st1" d="M344,209c0-9.4,28.7-17,64-17s64,7.6,64,17s-28.7,17-64,17S344,218.4,344,209z"/>
		</g>
		<g transform="translate(-22,-86) scale(1,1)">
			<path class="st2" d="M344,209c0-9.4,28.7-17,64-17s64,7.6,64,17s-28.7,17-64,17S344,218.4,344,209z"/>
		</g>
		<g transform="translate(-22,-86) scale(1,1)">
			<g>
				<path class="st2" d="M0,0"/>
				<text transform="matrix(1 0 0 1 371.355 216)" class="st3 st4">S&apos;enregistrer</text>
			</g>
		</g>
		<g transform="translate(-22,-86) scale(1,1)">
			<path class="st2" d="M353,274l375,6l39-35"/>
		</g>
		<g transform="translate(-22,-86) scale(1,1)">
			<path class="st2" d="M473,208l294-7"/>
		</g>
		<g transform="translate(-22,-86) scale(1,1)">
			<path class="st0" d="M199,416c0-9.4,43.7-17,97.5-17s97.5,7.6,97.5,17s-43.7,17-97.5,17S199,425.4,199,416z"/>
		</g>
		<g transform="translate(-22,-86) scale(1,1)">
			<path class="st1" d="M192,409c0-9.4,43.7-17,97.5-17s97.5,7.6,97.5,17s-43.7,17-97.5,17S192,418.4,192,409z"/>
		</g>
		<g transform="translate(-22,-86) scale(1,1)">
			<path class="st2" d="M192,409c0-9.4,43.7-17,97.5-17s97.5,7.6,97.5,17s-43.7,17-97.5,17S192,418.4,192,409z"/>
		</g>
		<g transform="translate(-22,-86) scale(1,1)">
			<g>
				<path class="st2" d="M0,0"/>
				<text transform="matrix(1 0 0 1 229.5305 416)" class="st3 st4">Naviguer sur la carte</text>
			</g>
		</g>
		<g transform="translate(-22,-86) scale(1,1)">
			<path class="st0" d="M471,633c0-14.4,48.4-26,108-26s108,11.6,108,26s-48.4,26-108,26S471,647.4,471,633z"/>
		</g>
		<g transform="translate(-22,-86) scale(1,1)">
			<path class="st1" d="M464,626c0-14.4,48.4-26,108-26s108,11.6,108,26s-48.4,26-108,26S464,640.4,464,626z"/>
		</g>
		<g transform="translate(-22,-86) scale(1,1)">
			<path class="st2" d="M464,626c0-14.4,48.4-26,108-26s108,11.6,108,26s-48.4,26-108,26S464,640.4,464,626z"/>
		</g>
		<g transform="translate(-22,-86) scale(1,1)">
			<g>
				<path class="st2" d="M0,0"/>
				<text transform="matrix(1 0 0 1 539.1191 626.5)" class="st3 st4">Ajouter des</text>
				<text transform="matrix(1 0 0 1 506.6033 639.5)" class="st3 st4">évènements en favoris</text>
			</g>
		</g>
		<g transform="translate(-22,-86) scale(1,1)">
			<path class="st0" d="M447,144c0-9.4,46.1-17,103-17s103,7.6,103,17s-46.1,17-103,17S447,153.4,447,144z"/>
		</g>
		<g transform="translate(-22,-86) scale(1,1)">
			<path class="st1" d="M440,137c0-9.4,46.1-17,103-17s103,7.6,103,17s-46.1,17-103,17S440,146.4,440,137z"/>
		</g>
		<g transform="translate(-22,-86) scale(1,1)">
			<path class="st2" d="M440,137c0-9.4,46.1-17,103-17s103,7.6,103,17s-46.1,17-103,17S440,146.4,440,137z"/>
		</g>
		<g transform="translate(-22,-86) scale(1,1)">
			<g>
				<path class="st2" d="M0,0"/>
				<text transform="matrix(1 0 0 1 480.8691 144)" class="st3 st4">Remplir un formulaire</text>
			</g>
		</g>
		<g transform="translate(-22,-86) scale(1,1)">
			<path class="st5" d="M509,155l-67,36"/>
		</g>
		<g transform="translate(-22,-86) scale(1,1)">
			<path class="st2" d="M449,182.5l-7,8.5l10.9-1.1"/>
		</g>
		<g transform="translate(-22,-86) scale(1,1)">
			<g>
				<path class="st2" d="M0,0"/>
				<text transform="matrix(1 0 0 1 479.5 179.5)" class="st6 st4">«extend»</text>
			</g>
		</g>
		<g transform="translate(-22,-86) scale(1,1)">
			<path class="st2" d="M113,408l78,1"/>
		</g>
		<g transform="translate(-22,-86) scale(1,1)">
			<path class="st2" d="M91,343l21-71l111,1"/>
		</g>
		<g transform="translate(-22,-86) scale(1,1)">
			<path class="st2" d="M681,620l79-4l23-27"/>
		</g>
		<g transform="translate(-22,-86) scale(1,1)">
			<path class="st0" d="M207,530.5c0-19.6,39.4-35.5,88-35.5s88,15.9,88,35.5c0,19.6-39.4,35.5-88,35.5S207,550.1,207,530.5z"/>
		</g>
		<g transform="translate(-22,-86) scale(1,1)">
			<path class="st1" d="M200,523.5c0-19.6,39.4-35.5,88-35.5s88,15.9,88,35.5c0,19.6-39.4,35.5-88,35.5S200,543.1,200,523.5z"/>
		</g>
		<g transform="translate(-22,-86) scale(1,1)">
			<path class="st2" d="M200,523.5c0-19.6,39.4-35.5,88-35.5s88,15.9,88,35.5c0,19.6-39.4,35.5-88,35.5S200,543.1,200,523.5z"/>
		</g>
		<g transform="translate(-22,-86) scale(1,1)">
			<g>
				<path class="st2" d="M0,0"/>
				<text transform="matrix(1 0 0 1 259.2166 517.5)" class="st3 st4">Afficher le</text>
				<text transform="matrix(1 0 0 1 247.521 530.5)" class="st3 st4">planning de la</text>
				<text transform="matrix(1 0 0 1 275.3586 543.5)" class="st3 st4">JPO</text>
			</g>
		</g>
		<g transform="translate(-22,-86) scale(1,1)">
			<path class="st0" d="M199,664c0-9.4,56.2-17,125.5-17S450,654.6,450,664s-56.2,17-125.5,17S199,673.4,199,664z"/>
		</g>
		<g transform="translate(-22,-86) scale(1,1)">
			<path class="st1" d="M192,657c0-9.4,56.2-17,125.5-17S443,647.6,443,657s-56.2,17-125.5,17S192,666.4,192,657z"/>
		</g>
		<g transform="translate(-22,-86) scale(1,1)">
			<path class="st2" d="M192,657c0-9.4,56.2-17,125.5-17S443,647.6,443,657s-56.2,17-125.5,17S192,666.4,192,657z"/>
		</g>
		<g transform="translate(-22,-86) scale(1,1)">
			<g>
				<path class="st2" d="M0,0"/>
				<text transform="matrix(1 0 0 1 240.3062 664)" class="st3 st4">Afficher les établissements</text>
			</g>
		</g>
		<g transform="translate(-22,-86) scale(1,1)">
			<path class="st0" d="M463,720c0-9.4,51.7-17,115.5-17S694,710.6,694,720s-51.7,17-115.5,17S463,729.4,463,720z"/>
		</g>
		<g transform="translate(-22,-86) scale(1,1)">
			<path class="st1" d="M456,713c0-9.4,51.7-17,115.5-17S687,703.6,687,713s-51.7,17-115.5,17S456,722.4,456,713z"/>
		</g>
		<g transform="translate(-22,-86) scale(1,1)">
			<path class="st2" d="M456,713c0-9.4,51.7-17,115.5-17S687,703.6,687,713s-51.7,17-115.5,17S456,722.4,456,713z"/>
		</g>
		<g transform="translate(-22,-86) scale(1,1)">
			<g>
				<path class="st2" d="M0,0"/>
				<text transform="matrix(1 0 0 1 501.5361 720)" class="st3 st4">Afficher leurs formations</text>
			</g>
		</g>
		<g transform="translate(-22,-86) scale(1,1)">
			<path class="st5" d="M489,695l-90-20"/>
		</g>
		<g transform="translate(-22,-86) scale(1,1)">
			<path class="st2" d="M409.8,673.1L399,675l9,6.3"/>
		</g>
		<g transform="translate(-22,-86) scale(1,1)">
			<g>
				<path class="st2" d="M0,0"/>
				<text transform="matrix(1 0 0 1 391.5 708.5)" class="st6 st4">«extend»</text>
			</g>
		</g>
		<g transform="translate(-22,-86) scale(1,1)">
			<path class="st2" d="M647,136h97l23,20"/>
		</g>
		<g transform="translate(-22,-86) scale(1,1)">
			<path class="st0" d="M231,328c0-9.4,75.9-17,169.5-17S570,318.6,570,328s-75.9,17-169.5,17S231,337.4,231,328z"/>
		</g>
		<g transform="translate(-22,-86) scale(1,1)">
			<path class="st1" d="M224,321c0-9.4,75.9-17,169.5-17S563,311.6,563,321s-75.9,17-169.5,17S224,330.4,224,321z"/>
		</g>
		<g transform="translate(-22,-86) scale(1,1)">
			<path class="st2" d="M224,321c0-9.4,75.9-17,169.5-17S563,311.6,563,321s-75.9,17-169.5,17S224,330.4,224,321z"/>
		</g>
		<g transform="translate(-22,-86) scale(1,1)">
			<g>
				<path class="st2" d="M0,0"/>
				<text transform="matrix(1 0 0 1 288.0115 328)" class="st3 st4">Remplir un formulaire de satisfaction</text>
			</g>
		</g>
		<g transform="translate(-22,-86) scale(1,1)">
			<path class="st5" d="M546,599l-24-26"/>
		</g>
		<g transform="translate(-22,-86) scale(1,1)">
			<path class="st2" d="M532,577.6l-10-4.6l3.8,10.3"/>
		</g>
		<g transform="translate(-22,-86) scale(1,1)">
			<g>
				<path class="st2" d="M0,0"/>
				<text transform="matrix(1 0 0 1 545.5 581.5)" class="st6 st4">«extend»</text>
			</g>
		</g>
		<g transform="translate(-22,-86) scale(1,1)">
			<path class="st0" d="M191,152c0-9.4,50.4-17,112.5-17S416,142.6,416,152s-50.4,17-112.5,17S191,161.4,191,152z"/>
		</g>
		<g transform="translate(-22,-86) scale(1,1)">
			<path class="st1" d="M184,145c0-9.4,50.4-17,112.5-17S409,135.6,409,145s-50.4,17-112.5,17S184,154.4,184,145z"/>
		</g>
		<g transform="translate(-22,-86) scale(1,1)">
			<path class="st2" d="M184,145c0-9.4,50.4-17,112.5-17S409,135.6,409,145s-50.4,17-112.5,17S184,154.4,184,145z"/>
		</g>
		<g transform="translate(-22,-86) scale(1,1)">
			<g>
				<path class="st2" d="M0,0"/>
				<text transform="matrix(1 0 0 1 227.4978 152)" class="st3 st4">Utiliser un réseau social</text>
			</g>
		</g>
		<g transform="translate(-22,-86) scale(1,1)">
			<path class="st5" d="M328,163l49,28"/>
		</g>
		<g transform="translate(-22,-86) scale(1,1)">
			<path class="st2" d="M366.1,189.6L377,191l-6.7-8.7"/>
		</g>
		<g transform="translate(-22,-86) scale(1,1)">
			<g>
				<path class="st2" d="M0,0"/>
				<text transform="matrix(1 0 0 1 295.5 188.5)" class="st6 st4">«extend»</text>
			</g>
		</g>
		<g transform="translate(-22,-86) scale(1,1)">
			<path class="st2" d="M113,465l39,55l47,1"/>
		</g>
		<g transform="translate(-22,-86) scale(1,1)">
			<path class="st2" d="M93,473l59,183h39"/>
		</g>
		<g transform="translate(-22,-86) scale(1,1)">
			<path class="st2" d="M107,343l13-23h103"/>
		</g>
		<g transform="translate(-22,-86) scale(1,1)">
			<path class="st2" d="M444,659l316,5l33-63"/>
		</g>
		<g transform="translate(-22,-86) scale(1,1)">
			<path class="st2" d="M688,712h112l18-111"/>
		</g>
		<g transform="translate(-22,-86) scale(1,1)">
			<path class="st0" d="M455,457c0-14.4,53.7-26,120-26s120,11.6,120,26s-53.7,26-120,26S455,471.4,455,457z"/>
		</g>
		<g transform="translate(-22,-86) scale(1,1)">
			<path class="st1" d="M448,450c0-14.4,53.7-26,120-26s120,11.6,120,26s-53.7,26-120,26S448,464.4,448,450z"/>
		</g>
		<g transform="translate(-22,-86) scale(1,1)">
			<path class="st2" d="M448,450c0-14.4,53.7-26,120-26s120,11.6,120,26s-53.7,26-120,26S448,464.4,448,450z"/>
		</g>
		<g transform="translate(-22,-86) scale(1,1)">
			<g>
				<path class="st2" d="M0,0"/>
				<text transform="matrix(1 0 0 1 510.3125 450.5)" class="st3 st4">Afficher un itinéraire</text>
				<text transform="matrix(1 0 0 1 531.1423 463.5)" class="st3 st4">personnalisé</text>
			</g>
		</g>
		<g transform="translate(-22,-86) scale(1,1)">
			<path class="st5" d="M447,432l-59-8"/>
		</g>
		<g transform="translate(-22,-86) scale(1,1)">
			<path class="st2" d="M398.6,421.2L388,424l9.5,5.5"/>
		</g>
		<g transform="translate(-22,-86) scale(1,1)">
			<g>
				<path class="st2" d="M0,0"/>
				<text transform="matrix(1 0 0 1 371.5 452.5)" class="st6 st4">«extend»</text>
			</g>
		</g>
		<g transform="translate(-22,-86) scale(1,1)">
			<path class="st5" d="M322,255l52-28"/>
		</g>
		<g transform="translate(-22,-86) scale(1,1)">
			<path class="st2" d="M367,235.5l7-8.5l-10.9,1.1"/>
		</g>
		<g transform="translate(-22,-86) scale(1,1)">
			<g>
				<path class="st2" d="M0,0"/>
				<text transform="matrix(1 0 0 1 295.5 238.5)" class="st6 st4">«include»</text>
			</g>
		</g>
		<g transform="translate(-22,-86) scale(1,1)">
			<path class="st0" d="M463,401c0-14.4,48.4-26,108-26s108,11.6,108,26s-48.4,26-108,26S463,415.4,463,401z"/>
		</g>
		<g transform="translate(-22,-86) scale(1,1)">
			<path class="st1" d="M456,394c0-14.4,48.4-26,108-26s108,11.6,108,26s-48.4,26-108,26S456,408.4,456,394z"/>
		</g>
		<g transform="translate(-22,-86) scale(1,1)">
			<path class="st2" d="M456,394c0-14.4,48.4-26,108-26s108,11.6,108,26s-48.4,26-108,26S456,408.4,456,394z"/>
		</g>
		<g transform="translate(-22,-86) scale(1,1)">
			<g>
				<path class="st2" d="M0,0"/>
				<text transform="matrix(1 0 0 1 499.092 394.5)" class="st3 st4">Afficher les marqueurs</text>
				<text transform="matrix(1 0 0 1 508.3596 407.5)" class="st3 st4">des établissements</text>
			</g>
		</g>
		<g transform="translate(-22,-86) scale(1,1)">
			<path class="st5" d="M455,400l-67,4"/>
		</g>
		<g transform="translate(-22,-86) scale(1,1)">
			<path class="st2" d="M397.9,399.2L388,404l10.4,3.6"/>
		</g>
		<g transform="translate(-22,-86) scale(1,1)">
			<g>
				<path class="st2" d="M0,0"/>
				<text transform="matrix(1 0 0 1 383.5 398.5)" class="st6 st4">«extend»</text>
			</g>
		</g>
		<g transform="translate(-22,-86) scale(1,1)">
			<path class="st0" d="M199,751c0-13.3,53.5-24,119.5-24S438,737.7,438,751s-53.5,24-119.5,24S199,764.3,199,751z"/>
		</g>
		<g transform="translate(-22,-86) scale(1,1)">
			<path class="st1" d="M192,744c0-13.3,53.5-24,119.5-24S431,730.7,431,744s-53.5,24-119.5,24S192,757.3,192,744z"/>
		</g>
		<g transform="translate(-22,-86) scale(1,1)">
			<path class="st2" d="M192,744c0-13.3,53.5-24,119.5-24S431,730.7,431,744s-53.5,24-119.5,24S192,757.3,192,744z"/>
		</g>
		<g transform="translate(-22,-86) scale(1,1)">
			<g>
				<path class="st2" d="M0,0"/>
				<text transform="matrix(1 0 0 1 252.3748 751)" class="st3 st4">Visualiser les favoris</text>
			</g>
		</g>
		<g transform="translate(-22,-86) scale(1,1)">
			<path class="st2" d="M87,473l65,271h39"/>
		</g>
		<g transform="translate(-22,-86) scale(1,1)">
			<path class="st2" d="M564,321l212-1l18-55"/>
		</g>
		<g transform="translate(-22,-86) scale(1,1)">
			<path class="st0" d="M423,553c0-14.4,35.8-26,80-26s80,11.6,80,26s-35.8,26-80,26S423,567.4,423,553z"/>
		</g>
		<g transform="translate(-22,-86) scale(1,1)">
			<path class="st1" d="M416,546c0-14.4,35.8-26,80-26s80,11.6,80,26s-35.8,26-80,26S416,560.4,416,546z"/>
		</g>
		<g transform="translate(-22,-86) scale(1,1)">
			<path class="st2" d="M416,546c0-14.4,35.8-26,80-26s80,11.6,80,26s-35.8,26-80,26S416,560.4,416,546z"/>
		</g>
		<g transform="translate(-22,-86) scale(1,1)">
			<g>
				<path class="st2" d="M0,0"/>
				<text transform="matrix(1 0 0 1 458.9043 546.5)" class="st3 st4">Visualiser un</text>
				<text transform="matrix(1 0 0 1 463.8396 559.5)" class="st3 st4">événement</text>
			</g>
		</g>
		<g transform="translate(-22,-86) scale(1,1)">
			<path class="st5" d="M377,533l38,4"/>
		</g>
		<g transform="translate(-22,-86) scale(1,1)">
			<path class="st2" d="M404.5,540.1L415,537l-9.7-5.3"/>
		</g>
		<g transform="translate(-22,-86) scale(1,1)">
			<g>
				<path class="st2" d="M0,0"/>
				<text transform="matrix(1 0 0 1 371.5 511.5)" class="st6 st4">«include»</text>
			</g>
		</g>
	</g>
</g>
</svg>
