<?xml version="1.0" encoding="utf-8"?>
<!-- Generator: Adobe Illustrator 23.0.1, SVG Export Plug-In . SVG Version: 6.00 Build 0)  -->
<svg version="1.1" id="Layer_1" xmlns="http://www.w3.org/2000/svg" xmlns:xlink="http://www.w3.org/1999/xlink" x="0px" y="0px"
	 viewBox="0 0 798.7 428" style="enable-background:new 0 0 798.7 428;" xml:space="preserve">
<style type="text/css">
	.st0{opacity:0.2;fill:#C0C0C0;enable-background:new    ;}
	.st1{fill:#FFFFFF;}
	.st2{fill:none;stroke:#000000;stroke-miterlimit:10;}
	.st3{font-family:'Arial-BoldMT';}
	.st4{font-size:13px;}
	.st5{fill:none;stroke:#000000;stroke-miterlimit:10;stroke-dasharray:3;}
	.st6{font-family:'ArialMT';}
</style>
<g>
	<g>
		<g transform="translate(-14,-78) scale(1,1)">
			<rect x="175" y="95" class="st0" width="472" height="408"/>
		</g>
		<g transform="translate(-14,-78) scale(1,1)">
			<rect x="168" y="88" class="st1" width="472" height="408"/>
		</g>
		<g transform="translate(-14,-78) scale(1,1)">
			<path class="st2" d="M168,88h472v408H168V88z"/>
		</g>
		<g transform="translate(-14,-78) scale(1,1)">
			<g>
				<path class="st2" d="M0,0"/>
				<text transform="matrix(1 0 0 1 335.7183 107.5)" class="st3 st4">Interface administrateur</text>
			</g>
		</g>
		<g transform="translate(-14,-78) scale(1,1)">
			<path class="st1" d="M58.3,249.8c0-9.3,7.3-16.8,16.4-16.8s16.4,7.5,16.4,16.8s-7.3,16.8-16.4,16.8S58.3,259.1,58.3,249.8z"/>
		</g>
		<g transform="translate(-14,-78) scale(1,1)">
			<path class="st2" d="M58.3,249.8c0-9.3,7.3-16.8,16.4-16.8s16.4,7.5,16.4,16.8s-7.3,16.8-16.4,16.8S58.3,259.1,58.3,249.8z"/>
		</g>
		<g transform="translate(-14,-78) scale(1,1)">
			<path class="st2" d="M74.7,266.7v32.6"/>
		</g>
		<g transform="translate(-14,-78) scale(1,1)">
			<path class="st2" d="M57.4,278.9h34.7"/>
		</g>
		<g transform="translate(-14,-78) scale(1,1)">
			<path class="st2" d="M74.7,299.3L50.6,333"/>
		</g>
		<g transform="translate(-14,-78) scale(1,1)">
			<path class="st2" d="M74.7,299.3L98.8,333"/>
		</g>
		<g transform="translate(-14,-78) scale(1,1)">
			<g>
				<path class="st2" d="M0,0"/>
				<text transform="matrix(1 0 0 1 32.8259 353.5)" class="st3 st4">Administrateur</text>
			</g>
		</g>
		<g transform="translate(-14,-78) scale(1,1)">
			<path class="st0" d="M487,298.5c0-19.6,23.1-35.5,51.5-35.5c28.4,0,51.5,15.9,51.5,35.5S566.9,334,538.5,334
				C510.1,334,487,318.1,487,298.5z"/>
		</g>
		<g transform="translate(-14,-78) scale(1,1)">
			<path class="st1" d="M480,291.5c0-19.6,23.1-35.5,51.5-35.5c28.4,0,51.5,15.9,51.5,35.5S559.9,327,531.5,327
				C503.1,327,480,311.1,480,291.5z"/>
		</g>
		<g transform="translate(-14,-78) scale(1,1)">
			<path class="st2" d="M480,291.5c0-19.6,23.1-35.5,51.5-35.5c28.4,0,51.5,15.9,51.5,35.5S559.9,327,531.5,327
				C503.1,327,480,311.1,480,291.5z"/>
		</g>
		<g transform="translate(-14,-78) scale(1,1)">
			<g>
				<path class="st2" d="M0,0"/>
				<text transform="matrix(1 0 0 1 510.905 285.5)" class="st3 st4">Ajouter</text>
				<text transform="matrix(1 0 0 1 508.3818 298.5)" class="st3 st4">modifier</text>
				<text transform="matrix(1 0 0 1 502.6023 311.5)" class="st3 st4">supprimer</text>
			</g>
		</g>
		<g transform="translate(-14,-78) scale(1,1)">
			<path class="st1" d="M732.4,116.6c0-6.4,5.1-11.6,11.4-11.6s11.4,5.2,11.4,11.6s-5.1,11.6-11.4,11.6S732.4,123,732.4,116.6z"/>
		</g>
		<g transform="translate(-14,-78) scale(1,1)">
			<path class="st2" d="M732.4,116.6c0-6.4,5.1-11.6,11.4-11.6s11.4,5.2,11.4,11.6s-5.1,11.6-11.4,11.6S732.4,123,732.4,116.6z"/>
		</g>
		<g transform="translate(-14,-78) scale(1,1)">
			<path class="st2" d="M743.8,128.1v22.7"/>
		</g>
		<g transform="translate(-14,-78) scale(1,1)">
			<path class="st2" d="M731.7,136.7h24.2"/>
		</g>
		<g transform="translate(-14,-78) scale(1,1)">
			<path class="st2" d="M743.8,150.9L727,174"/>
		</g>
		<g transform="translate(-14,-78) scale(1,1)">
			<path class="st2" d="M743.8,150.9l16.8,23.1"/>
		</g>
		<g transform="translate(-14,-78) scale(1,1)">
			<g>
				<path class="st2" d="M0,0"/>
				<text transform="matrix(1 0 0 1 703.4529 194.5)" class="st3 st4">BDD Visiteurs</text>
			</g>
		</g>
		<g transform="translate(-14,-78) scale(1,1)">
			<path class="st1" d="M749.9,340.6c0-6.4,5.1-11.6,11.4-11.6s11.4,5.2,11.4,11.6c0,6.4-5.1,11.6-11.4,11.6S749.9,347,749.9,340.6z
				"/>
		</g>
		<g transform="translate(-14,-78) scale(1,1)">
			<path class="st2" d="M749.9,340.6c0-6.4,5.1-11.6,11.4-11.6s11.4,5.2,11.4,11.6c0,6.4-5.1,11.6-11.4,11.6S749.9,347,749.9,340.6z
				"/>
		</g>
		<g transform="translate(-14,-78) scale(1,1)">
			<path class="st2" d="M761.3,352.1v22.7"/>
		</g>
		<g transform="translate(-14,-78) scale(1,1)">
			<path class="st2" d="M749.3,360.7h24.2"/>
		</g>
		<g transform="translate(-14,-78) scale(1,1)">
			<path class="st2" d="M761.3,374.9L744.6,398"/>
		</g>
		<g transform="translate(-14,-78) scale(1,1)">
			<path class="st2" d="M761.3,374.9l16.8,23.1"/>
		</g>
		<g transform="translate(-14,-78) scale(1,1)">
			<g>
				<path class="st2" d="M0,0"/>
				<text transform="matrix(1 0 0 1 726.3059 418.5)" class="st3 st4">BDD Ecoles</text>
			</g>
		</g>
		<g transform="translate(-14,-78) scale(1,1)">
			<path class="st0" d="M343,153c0-14.4,30.4-26,68-26s68,11.6,68,26s-30.4,26-68,26S343,167.4,343,153z"/>
		</g>
		<g transform="translate(-14,-78) scale(1,1)">
			<path class="st1" d="M336,146c0-14.4,30.4-26,68-26s68,11.6,68,26s-30.4,26-68,26S336,160.4,336,146z"/>
		</g>
		<g transform="translate(-14,-78) scale(1,1)">
			<path class="st2" d="M336,146c0-14.4,30.4-26,68-26s68,11.6,68,26s-30.4,26-68,26S336,160.4,336,146z"/>
		</g>
		<g transform="translate(-14,-78) scale(1,1)">
			<g>
				<path class="st2" d="M0,0"/>
				<text transform="matrix(1 0 0 1 365.8252 146.5)" class="st3 st4">Visualiser les</text>
				<text transform="matrix(1 0 0 1 380.1614 159.5)" class="st3 st4">visiteurs</text>
			</g>
		</g>
		<g transform="translate(-14,-78) scale(1,1)">
			<path class="st0" d="M239,233c0-14.4,30.4-26,68-26s68,11.6,68,26s-30.4,26-68,26S239,247.4,239,233z"/>
		</g>
		<g transform="translate(-14,-78) scale(1,1)">
			<path class="st1" d="M232,226c0-14.4,30.4-26,68-26s68,11.6,68,26s-30.4,26-68,26S232,240.4,232,226z"/>
		</g>
		<g transform="translate(-14,-78) scale(1,1)">
			<path class="st2" d="M232,226c0-14.4,30.4-26,68-26s68,11.6,68,26s-30.4,26-68,26S232,240.4,232,226z"/>
		</g>
		<g transform="translate(-14,-78) scale(1,1)">
			<g>
				<path class="st2" d="M0,0"/>
				<text transform="matrix(1 0 0 1 261.8252 226.5)" class="st3 st4">Visualiser les</text>
				<text transform="matrix(1 0 0 1 267.8523 239.5)" class="st3 st4">formulaires</text>
			</g>
		</g>
		<g transform="translate(-14,-78) scale(1,1)">
			<path class="st0" d="M231,305c0-14.4,35.8-26,80-26s80,11.6,80,26s-35.8,26-80,26S231,319.4,231,305z"/>
		</g>
		<g transform="translate(-14,-78) scale(1,1)">
			<path class="st1" d="M224,298c0-14.4,35.8-26,80-26s80,11.6,80,26s-35.8,26-80,26S224,312.4,224,298z"/>
		</g>
		<g transform="translate(-14,-78) scale(1,1)">
			<path class="st2" d="M224,298c0-14.4,35.8-26,80-26s80,11.6,80,26s-35.8,26-80,26S224,312.4,224,298z"/>
		</g>
		<g transform="translate(-14,-78) scale(1,1)">
			<g>
				<path class="st2" d="M0,0"/>
				<text transform="matrix(1 0 0 1 265.8252 298.5)" class="st3 st4">Visualiser les</text>
				<text transform="matrix(1 0 0 1 260.6455 311.5)" class="st3 st4">établissements</text>
			</g>
		</g>
		<g transform="translate(-14,-78) scale(1,1)">
			<path class="st5" d="M479,293l-94,3"/>
		</g>
		<g transform="translate(-14,-78) scale(1,1)">
			<path class="st2" d="M395,291.5l-10,4.5l10.3,3.9"/>
		</g>
		<g transform="translate(-14,-78) scale(1,1)">
			<g>
				<path class="st2" d="M0,0"/>
				<text transform="matrix(1 0 0 1 399.5 291.5)" class="st6 st4">«include»</text>
			</g>
		</g>
		<g transform="translate(-14,-78) scale(1,1)">
			<path class="st0" d="M479,378.5c0-19.6,23.1-35.5,51.5-35.5c28.4,0,51.5,15.9,51.5,35.5S558.9,414,530.5,414
				C502.1,414,479,398.1,479,378.5z"/>
		</g>
		<g transform="translate(-14,-78) scale(1,1)">
			<path class="st1" d="M472,371.5c0-19.6,23.1-35.5,51.5-35.5c28.4,0,51.5,15.9,51.5,35.5S551.9,407,523.5,407
				C495.1,407,472,391.1,472,371.5z"/>
		</g>
		<g transform="translate(-14,-78) scale(1,1)">
			<path class="st2" d="M472,371.5c0-19.6,23.1-35.5,51.5-35.5c28.4,0,51.5,15.9,51.5,35.5S551.9,407,523.5,407
				C495.1,407,472,391.1,472,371.5z"/>
		</g>
		<g transform="translate(-14,-78) scale(1,1)">
			<g>
				<path class="st2" d="M0,0"/>
				<text transform="matrix(1 0 0 1 502.905 365.5)" class="st3 st4">Ajouter</text>
				<text transform="matrix(1 0 0 1 500.3818 378.5)" class="st3 st4">modifier</text>
				<text transform="matrix(1 0 0 1 494.6023 391.5)" class="st3 st4">supprimer</text>
			</g>
		</g>
		<g transform="translate(-14,-78) scale(1,1)">
			<path class="st0" d="M231,385c0-14.4,30.4-26,68-26s68,11.6,68,26s-30.4,26-68,26S231,399.4,231,385z"/>
		</g>
		<g transform="translate(-14,-78) scale(1,1)">
			<path class="st1" d="M224,378c0-14.4,30.4-26,68-26s68,11.6,68,26s-30.4,26-68,26S224,392.4,224,378z"/>
		</g>
		<g transform="translate(-14,-78) scale(1,1)">
			<path class="st2" d="M224,378c0-14.4,30.4-26,68-26s68,11.6,68,26s-30.4,26-68,26S224,392.4,224,378z"/>
		</g>
		<g transform="translate(-14,-78) scale(1,1)">
			<g>
				<path class="st2" d="M0,0"/>
				<text transform="matrix(1 0 0 1 253.8252 378.5)" class="st3 st4">Visualiser les</text>
				<text transform="matrix(1 0 0 1 261.655 391.5)" class="st3 st4">formations</text>
			</g>
		</g>
		<g transform="translate(-14,-78) scale(1,1)">
			<path class="st0" d="M231,457c0-14.4,30.4-26,68-26s68,11.6,68,26s-30.4,26-68,26S231,471.4,231,457z"/>
		</g>
		<g transform="translate(-14,-78) scale(1,1)">
			<path class="st1" d="M224,450c0-14.4,30.4-26,68-26s68,11.6,68,26s-30.4,26-68,26S224,464.4,224,450z"/>
		</g>
		<g transform="translate(-14,-78) scale(1,1)">
			<path class="st2" d="M224,450c0-14.4,30.4-26,68-26s68,11.6,68,26s-30.4,26-68,26S224,464.4,224,450z"/>
		</g>
		<g transform="translate(-14,-78) scale(1,1)">
			<g>
				<path class="st2" d="M0,0"/>
				<text transform="matrix(1 0 0 1 253.8252 450.5)" class="st3 st4">Visualiser les</text>
				<text transform="matrix(1 0 0 1 256.5896 463.5)" class="st3 st4">événements</text>
			</g>
		</g>
		<g transform="translate(-14,-78) scale(1,1)">
			<path class="st0" d="M479,458.5c0-19.6,23.1-35.5,51.5-35.5c28.4,0,51.5,15.9,51.5,35.5S558.9,494,530.5,494
				C502.1,494,479,478.1,479,458.5z"/>
		</g>
		<g transform="translate(-14,-78) scale(1,1)">
			<path class="st1" d="M472,451.5c0-19.6,23.1-35.5,51.5-35.5c28.4,0,51.5,15.9,51.5,35.5S551.9,487,523.5,487
				C495.1,487,472,471.1,472,451.5z"/>
		</g>
		<g transform="translate(-14,-78) scale(1,1)">
			<path class="st2" d="M472,451.5c0-19.6,23.1-35.5,51.5-35.5c28.4,0,51.5,15.9,51.5,35.5S551.9,487,523.5,487
				C495.1,487,472,471.1,472,451.5z"/>
		</g>
		<g transform="translate(-14,-78) scale(1,1)">
			<g>
				<path class="st2" d="M0,0"/>
				<text transform="matrix(1 0 0 1 502.905 445.5)" class="st3 st4">Ajouter</text>
				<text transform="matrix(1 0 0 1 500.3818 458.5)" class="st3 st4">modifier</text>
				<text transform="matrix(1 0 0 1 494.6023 471.5)" class="st3 st4">supprimer</text>
			</g>
		</g>
		<g transform="translate(-14,-78) scale(1,1)">
			<path class="st5" d="M471,373l-110,3"/>
		</g>
		<g transform="translate(-14,-78) scale(1,1)">
			<path class="st2" d="M371,371.5l-10,4.5l10.3,3.9"/>
		</g>
		<g transform="translate(-14,-78) scale(1,1)">
			<g>
				<path class="st2" d="M0,0"/>
				<text transform="matrix(1 0 0 1 386.5 368.5)" class="st6 st4">«include»</text>
			</g>
		</g>
		<g transform="translate(-14,-78) scale(1,1)">
			<path class="st5" d="M471,451l-110-1"/>
		</g>
		<g transform="translate(-14,-78) scale(1,1)">
			<path class="st2" d="M371.2,445.9L361,450l10.1,4.3"/>
		</g>
		<g transform="translate(-14,-78) scale(1,1)">
			<g>
				<path class="st2" d="M0,0"/>
				<text transform="matrix(1 0 0 1 383.5 443.5)" class="st6 st4">«include»</text>
			</g>
		</g>
		<g transform="translate(-14,-78) scale(1,1)">
			<path class="st2" d="M719,330l-31-34l-104-3"/>
		</g>
		<g transform="translate(-14,-78) scale(1,1)">
			<path class="st2" d="M719,375l-143-3"/>
		</g>
		<g transform="translate(-14,-78) scale(1,1)">
			<path class="st2" d="M576,450l104-2l39-35"/>
		</g>
		<g transform="translate(-14,-78) scale(1,1)">
			<path class="st0" d="M471,225c0-14.4,32.2-26,72-26s72,11.6,72,26s-32.2,26-72,26S471,239.4,471,225z"/>
		</g>
		<g transform="translate(-14,-78) scale(1,1)">
			<path class="st1" d="M464,218c0-14.4,32.2-26,72-26s72,11.6,72,26s-32.2,26-72,26S464,232.4,464,218z"/>
		</g>
		<g transform="translate(-14,-78) scale(1,1)">
			<path class="st2" d="M464,218c0-14.4,32.2-26,72-26s72,11.6,72,26s-32.2,26-72,26S464,232.4,464,218z"/>
		</g>
		<g transform="translate(-14,-78) scale(1,1)">
			<g>
				<path class="st2" d="M0,0"/>
				<text transform="matrix(1 0 0 1 501.3196 218.5)" class="st3 st4">Exporter les</text>
				<text transform="matrix(1 0 0 1 511.0601 231.5)" class="st3 st4">données</text>
			</g>
		</g>
		<g transform="translate(-14,-78) scale(1,1)">
			<path class="st5" d="M369,224l94-4"/>
		</g>
		<g transform="translate(-14,-78) scale(1,1)">
			<path class="st2" d="M453,224.6l10-4.6l-10.3-3.8"/>
		</g>
		<g transform="translate(-14,-78) scale(1,1)">
			<g>
				<path class="st2" d="M0,0"/>
				<text transform="matrix(1 0 0 1 387.5 198.5)" class="st6 st4">«extend»</text>
			</g>
		</g>
		<g transform="translate(-14,-78) scale(1,1)">
			<path class="st2" d="M104,231l40-87l191,1"/>
		</g>
		<g transform="translate(-14,-78) scale(1,1)">
			<path class="st2" d="M231,225l-95-1l-10,11"/>
		</g>
		<g transform="translate(-14,-78) scale(1,1)">
			<path class="st2" d="M223,449l-79-1l-40-88"/>
		</g>
		<g transform="translate(-14,-78) scale(1,1)">
			<path class="st2" d="M223,377l-79-1l-18-20"/>
		</g>
		<g transform="translate(-14,-78) scale(1,1)">
			<path class="st2" d="M223,297l-97-1"/>
		</g>
		<g transform="translate(-14,-78) scale(1,1)">
			<path class="st2" d="M473,147l214,4"/>
		</g>
		<g transform="translate(-14,-78) scale(1,1)">
			<path class="st2" d="M689,201l-17,15l-63,1"/>
		</g>
	</g>
</g>
</svg>
