<svg version="1.1" xmlns="http://www.w3.org/2000/svg" xmlns:xlink="http://www.w3.org/1999/xlink" width="798.68994140625" height="428"><defs/><g><text fill="#eeeeee" stroke="none" font-family="Arial" font-size="24px" font-style="normal" font-weight="normal" text-decoration="none" x="0" y="0">UNREGISTERED</text><text fill="#eeeeee" stroke="none" font-family="Arial" font-size="24px" font-style="normal" font-weight="normal" text-decoration="none" x="0" y="30">UNREGISTERED</text><text fill="#eeeeee" stroke="none" font-family="Arial" font-size="24px" font-style="normal" font-weight="normal" text-decoration="none" x="0" y="60">UNREGISTERED</text><text fill="#eeeeee" stroke="none" font-family="Arial" font-size="24px" font-style="normal" font-weight="normal" text-decoration="none" x="0" y="90">UNREGISTERED</text><text fill="#eeeeee" stroke="none" font-family="Arial" font-size="24px" font-style="normal" font-weight="normal" text-decoration="none" x="0" y="120">UNREGISTERED</text><text fill="#eeeeee" stroke="none" font-family="Arial" font-size="24px" font-style="normal" font-weight="normal" text-decoration="none" x="0" y="150">UNREGISTERED</text><text fill="#eeeeee" stroke="none" font-family="Arial" font-size="24px" font-style="normal" font-weight="normal" text-decoration="none" x="0" y="180">UNREGISTERED</text><text fill="#eeeeee" stroke="none" font-family="Arial" font-size="24px" font-style="normal" font-weight="normal" text-decoration="none" x="0" y="210">UNREGISTERED</text><text fill="#eeeeee" stroke="none" font-family="Arial" font-size="24px" font-style="normal" font-weight="normal" text-decoration="none" x="0" y="240">UNREGISTERED</text><text fill="#eeeeee" stroke="none" font-family="Arial" font-size="24px" font-style="normal" font-weight="normal" text-decoration="none" x="0" y="270">UNREGISTERED</text><text fill="#eeeeee" stroke="none" font-family="Arial" font-size="24px" font-style="normal" font-weight="normal" text-decoration="none" x="0" y="300">UNREGISTERED</text><text fill="#eeeeee" stroke="none" font-family="Arial" font-size="24px" font-style="normal" font-weight="normal" text-decoration="none" x="0" y="330">UNREGISTERED</text><text fill="#eeeeee" stroke="none" font-family="Arial" font-size="24px" font-style="normal" font-weight="normal" text-decoration="none" x="0" y="360">UNREGISTERED</text><text fill="#eeeeee" stroke="none" font-family="Arial" font-size="24px" font-style="normal" font-weight="normal" text-decoration="none" x="0" y="390">UNREGISTERED</text><text fill="#eeeeee" stroke="none" font-family="Arial" font-size="24px" font-style="normal" font-weight="normal" text-decoration="none" x="0" y="420">UNREGISTERED</text><text fill="#eeeeee" stroke="none" font-family="Arial" font-size="24px" font-style="normal" font-weight="normal" text-decoration="none" x="200" y="0">UNREGISTERED</text><text fill="#eeeeee" stroke="none" font-family="Arial" font-size="24px" font-style="normal" font-weight="normal" text-decoration="none" x="200" y="30">UNREGISTERED</text><text fill="#eeeeee" stroke="none" font-family="Arial" font-size="24px" font-style="normal" font-weight="normal" text-decoration="none" x="200" y="60">UNREGISTERED</text><text fill="#eeeeee" stroke="none" font-family="Arial" font-size="24px" font-style="normal" font-weight="normal" text-decoration="none" x="200" y="90">UNREGISTERED</text><text fill="#eeeeee" stroke="none" font-family="Arial" font-size="24px" font-style="normal" font-weight="normal" text-decoration="none" x="200" y="120">UNREGISTERED</text><text fill="#eeeeee" stroke="none" font-family="Arial" font-size="24px" font-style="normal" font-weight="normal" text-decoration="none" x="200" y="150">UNREGISTERED</text><text fill="#eeeeee" stroke="none" font-family="Arial" font-size="24px" font-style="normal" font-weight="normal" text-decoration="none" x="200" y="180">UNREGISTERED</text><text fill="#eeeeee" stroke="none" font-family="Arial" font-size="24px" font-style="normal" font-weight="normal" text-decoration="none" x="200" y="210">UNREGISTERED</text><text fill="#eeeeee" stroke="none" font-family="Arial" font-size="24px" font-style="normal" font-weight="normal" text-decoration="none" x="200" y="240">UNREGISTERED</text><text fill="#eeeeee" stroke="none" font-family="Arial" font-size="24px" font-style="normal" font-weight="normal" text-decoration="none" x="200" y="270">UNREGISTERED</text><text fill="#eeeeee" stroke="none" font-family="Arial" font-size="24px" font-style="normal" font-weight="normal" text-decoration="none" x="200" y="300">UNREGISTERED</text><text fill="#eeeeee" stroke="none" font-family="Arial" font-size="24px" font-style="normal" font-weight="normal" text-decoration="none" x="200" y="330">UNREGISTERED</text><text fill="#eeeeee" stroke="none" font-family="Arial" font-size="24px" font-style="normal" font-weight="normal" text-decoration="none" x="200" y="360">UNREGISTERED</text><text fill="#eeeeee" stroke="none" font-family="Arial" font-size="24px" font-style="normal" font-weight="normal" text-decoration="none" x="200" y="390">UNREGISTERED</text><text fill="#eeeeee" stroke="none" font-family="Arial" font-size="24px" font-style="normal" font-weight="normal" text-decoration="none" x="200" y="420">UNREGISTERED</text><text fill="#eeeeee" stroke="none" font-family="Arial" font-size="24px" font-style="normal" font-weight="normal" text-decoration="none" x="400" y="0">UNREGISTERED</text><text fill="#eeeeee" stroke="none" font-family="Arial" font-size="24px" font-style="normal" font-weight="normal" text-decoration="none" x="400" y="30">UNREGISTERED</text><text fill="#eeeeee" stroke="none" font-family="Arial" font-size="24px" font-style="normal" font-weight="normal" text-decoration="none" x="400" y="60">UNREGISTERED</text><text fill="#eeeeee" stroke="none" font-family="Arial" font-size="24px" font-style="normal" font-weight="normal" text-decoration="none" x="400" y="90">UNREGISTERED</text><text fill="#eeeeee" stroke="none" font-family="Arial" font-size="24px" font-style="normal" font-weight="normal" text-decoration="none" x="400" y="120">UNREGISTERED</text><text fill="#eeeeee" stroke="none" font-family="Arial" font-size="24px" font-style="normal" font-weight="normal" text-decoration="none" x="400" y="150">UNREGISTERED</text><text fill="#eeeeee" stroke="none" font-family="Arial" font-size="24px" font-style="normal" font-weight="normal" text-decoration="none" x="400" y="180">UNREGISTERED</text><text fill="#eeeeee" stroke="none" font-family="Arial" font-size="24px" font-style="normal" font-weight="normal" text-decoration="none" x="400" y="210">UNREGISTERED</text><text fill="#eeeeee" stroke="none" font-family="Arial" font-size="24px" font-style="normal" font-weight="normal" text-decoration="none" x="400" y="240">UNREGISTERED</text><text fill="#eeeeee" stroke="none" font-family="Arial" font-size="24px" font-style="normal" font-weight="normal" text-decoration="none" x="400" y="270">UNREGISTERED</text><text fill="#eeeeee" stroke="none" font-family="Arial" font-size="24px" font-style="normal" font-weight="normal" text-decoration="none" x="400" y="300">UNREGISTERED</text><text fill="#eeeeee" stroke="none" font-family="Arial" font-size="24px" font-style="normal" font-weight="normal" text-decoration="none" x="400" y="330">UNREGISTERED</text><text fill="#eeeeee" stroke="none" font-family="Arial" font-size="24px" font-style="normal" font-weight="normal" text-decoration="none" x="400" y="360">UNREGISTERED</text><text fill="#eeeeee" stroke="none" font-family="Arial" font-size="24px" font-style="normal" font-weight="normal" text-decoration="none" x="400" y="390">UNREGISTERED</text><text fill="#eeeeee" stroke="none" font-family="Arial" font-size="24px" font-style="normal" font-weight="normal" text-decoration="none" x="400" y="420">UNREGISTERED</text><text fill="#eeeeee" stroke="none" font-family="Arial" font-size="24px" font-style="normal" font-weight="normal" text-decoration="none" x="600" y="0">UNREGISTERED</text><text fill="#eeeeee" stroke="none" font-family="Arial" font-size="24px" font-style="normal" font-weight="normal" text-decoration="none" x="600" y="30">UNREGISTERED</text><text fill="#eeeeee" stroke="none" font-family="Arial" font-size="24px" font-style="normal" font-weight="normal" text-decoration="none" x="600" y="60">UNREGISTERED</text><text fill="#eeeeee" stroke="none" font-family="Arial" font-size="24px" font-style="normal" font-weight="normal" text-decoration="none" x="600" y="90">UNREGISTERED</text><text fill="#eeeeee" stroke="none" font-family="Arial" font-size="24px" font-style="normal" font-weight="normal" text-decoration="none" x="600" y="120">UNREGISTERED</text><text fill="#eeeeee" stroke="none" font-family="Arial" font-size="24px" font-style="normal" font-weight="normal" text-decoration="none" x="600" y="150">UNREGISTERED</text><text fill="#eeeeee" stroke="none" font-family="Arial" font-size="24px" font-style="normal" font-weight="normal" text-decoration="none" x="600" y="180">UNREGISTERED</text><text fill="#eeeeee" stroke="none" font-family="Arial" font-size="24px" font-style="normal" font-weight="normal" text-decoration="none" x="600" y="210">UNREGISTERED</text><text fill="#eeeeee" stroke="none" font-family="Arial" font-size="24px" font-style="normal" font-weight="normal" text-decoration="none" x="600" y="240">UNREGISTERED</text><text fill="#eeeeee" stroke="none" font-family="Arial" font-size="24px" font-style="normal" font-weight="normal" text-decoration="none" x="600" y="270">UNREGISTERED</text><text fill="#eeeeee" stroke="none" font-family="Arial" font-size="24px" font-style="normal" font-weight="normal" text-decoration="none" x="600" y="300">UNREGISTERED</text><text fill="#eeeeee" stroke="none" font-family="Arial" font-size="24px" font-style="normal" font-weight="normal" text-decoration="none" x="600" y="330">UNREGISTERED</text><text fill="#eeeeee" stroke="none" font-family="Arial" font-size="24px" font-style="normal" font-weight="normal" text-decoration="none" x="600" y="360">UNREGISTERED</text><text fill="#eeeeee" stroke="none" font-family="Arial" font-size="24px" font-style="normal" font-weight="normal" text-decoration="none" x="600" y="390">UNREGISTERED</text><text fill="#eeeeee" stroke="none" font-family="Arial" font-size="24px" font-style="normal" font-weight="normal" text-decoration="none" x="600" y="420">UNREGISTERED</text><g transform="translate(-14,-78) scale(1,1)"><rect fill="#C0C0C0" stroke="none" x="175" y="95" width="472" height="408" opacity="0.2"/></g><g transform="translate(-14,-78) scale(1,1)"><rect fill="#ffffff" stroke="none" x="168" y="88" width="472" height="408"/></g><g transform="translate(-14,-78) scale(1,1)"><path fill="none" stroke="#000000" d="M 168 88 L 640 88 L 640 496 L 168 496 L 168 88 Z Z" stroke-miterlimit="10"/></g><g transform="translate(-14,-78) scale(1,1)"><g><path fill="none" stroke="none"/><text fill="#000000" stroke="none" font-family="Arial" font-size="13px" font-style="normal" font-weight="bold" text-decoration="none" x="335.71826171875" y="107.5">Interface administrateur</text></g></g><g transform="translate(-14,-78) scale(1,1)"><path fill="#ffffff" stroke="none" d="M 58.33579865056818 249.84 C 58.33579865056818 240.539523968 65.67572304213182 233 74.72998046875 233 C 83.78423789536818 233 91.12416228693182 240.539523968 91.12416228693182 249.84 C 91.12416228693182 259.140476032 83.78423789536818 266.68 74.72998046875 266.68 C 65.67572304213182 266.68 58.33579865056818 259.140476032 58.33579865056818 249.84 Z"/></g><g transform="translate(-14,-78) scale(1,1)"><path fill="none" stroke="#000000" d="M 58.33579865056818 249.84 C 58.33579865056818 240.539523968 65.67572304213182 233 74.72998046875 233 C 83.78423789536818 233 91.12416228693182 240.539523968 91.12416228693182 249.84 C 91.12416228693182 259.140476032 83.78423789536818 266.68 74.72998046875 266.68 C 65.67572304213182 266.68 58.33579865056818 259.140476032 58.33579865056818 249.84 Z" stroke-miterlimit="10"/></g><g transform="translate(-14,-78) scale(1,1)"><path fill="none" stroke="#000000" d="M 74.72998046875 266.68 L 74.72998046875 299.32" stroke-miterlimit="10"/></g><g transform="translate(-14,-78) scale(1,1)"><path fill="none" stroke="#000000" d="M 57.37143501420454 278.92 L 92.08852592329545 278.92" stroke-miterlimit="10"/></g><g transform="translate(-14,-78) scale(1,1)"><path fill="none" stroke="#000000" d="M 74.72998046875 299.32 L 50.62088955965909 333" stroke-miterlimit="10"/></g><g transform="translate(-14,-78) scale(1,1)"><path fill="none" stroke="#000000" d="M 74.72998046875 299.32 L 98.83907137784091 333" stroke-miterlimit="10"/></g><g transform="translate(-14,-78) scale(1,1)"><g><path fill="none" stroke="none"/><text fill="#000000" stroke="none" font-family="Arial" font-size="13px" font-style="normal" font-weight="bold" text-decoration="none" x="32.825927734375" y="353.5">Administrateur</text></g></g><g transform="translate(-14,-78) scale(1,1)"><path fill="#C0C0C0" stroke="none" d="M 487 298.5 C 487 278.8938896 510.0573328 263 538.5 263 C 566.9426672 263 590 278.8938896 590 298.5 C 590 318.1061104 566.9426672 334 538.5 334 C 510.0573328 334 487 318.1061104 487 298.5 Z" opacity="0.2"/></g><g transform="translate(-14,-78) scale(1,1)"><path fill="#ffffff" stroke="none" d="M 480 291.5 C 480 271.8938896 503.0573328 256 531.5 256 C 559.9426672 256 583 271.8938896 583 291.5 C 583 311.1061104 559.9426672 327 531.5 327 C 503.0573328 327 480 311.1061104 480 291.5 Z"/></g><g transform="translate(-14,-78) scale(1,1)"><path fill="none" stroke="#000000" d="M 480 291.5 C 480 271.8938896 503.0573328 256 531.5 256 C 559.9426672 256 583 271.8938896 583 291.5 C 583 311.1061104 559.9426672 327 531.5 327 C 503.0573328 327 480 311.1061104 480 291.5 Z" stroke-miterlimit="10"/></g><g transform="translate(-14,-78) scale(1,1)"><g><path fill="none" stroke="none"/><text fill="#000000" stroke="none" font-family="Arial" font-size="13px" font-style="normal" font-weight="bold" text-decoration="none" x="510.905029296875" y="285.5">Ajouter</text><text fill="#000000" stroke="none" font-family="Arial" font-size="13px" font-style="normal" font-weight="bold" text-decoration="none" x="508.3818359375" y="298.5">modifier</text><text fill="#000000" stroke="none" font-family="Arial" font-size="13px" font-style="normal" font-weight="bold" text-decoration="none" x="502.602294921875" y="311.5">supprimer</text></g></g><g transform="translate(-14,-78) scale(1,1)"><path fill="#ffffff" stroke="none" d="M 732.3774261363636 116.57 C 732.3774261363636 110.180064864 737.4865891932363 105 743.7890625 105 C 750.0915358067637 105 755.2006988636364 110.180064864 755.2006988636364 116.57 C 755.2006988636364 122.95993513599998 750.0915358067637 128.14 743.7890625 128.14 C 737.4865891932363 128.14 732.3774261363636 122.95993513599998 732.3774261363636 116.57 Z"/></g><g transform="translate(-14,-78) scale(1,1)"><path fill="none" stroke="#000000" d="M 732.3774261363636 116.57 C 732.3774261363636 110.180064864 737.4865891932363 105 743.7890625 105 C 750.0915358067637 105 755.2006988636364 110.180064864 755.2006988636364 116.57 C 755.2006988636364 122.95993513599998 750.0915358067637 128.14 743.7890625 128.14 C 737.4865891932363 128.14 732.3774261363636 122.95993513599998 732.3774261363636 116.57 Z" stroke-miterlimit="10"/></g><g transform="translate(-14,-78) scale(1,1)"><path fill="none" stroke="#000000" d="M 743.7890625 128.14 L 743.7890625 150.86" stroke-miterlimit="10"/></g><g transform="translate(-14,-78) scale(1,1)"><path fill="none" stroke="#000000" d="M 731.7061534090909 136.66 L 755.8719715909091 136.66" stroke-miterlimit="10"/></g><g transform="translate(-14,-78) scale(1,1)"><path fill="none" stroke="#000000" d="M 743.7890625 150.86 L 727.0072443181818 174" stroke-miterlimit="10"/></g><g transform="translate(-14,-78) scale(1,1)"><path fill="none" stroke="#000000" d="M 743.7890625 150.86 L 760.5708806818182 174" stroke-miterlimit="10"/></g><g transform="translate(-14,-78) scale(1,1)"><g><path fill="none" stroke="none"/><text fill="#000000" stroke="none" font-family="Arial" font-size="13px" font-style="normal" font-weight="bold" text-decoration="none" x="703.452880859375" y="194.5">BDD Visiteurs</text></g></g><g transform="translate(-14,-78) scale(1,1)"><path fill="#ffffff" stroke="none" d="M 749.9333343394886 340.57 C 749.9333343394886 334.180064864 755.0424973963613 329 761.344970703125 329 C 767.6474440098887 329 772.7566070667614 334.180064864 772.7566070667614 340.57 C 772.7566070667614 346.959935136 767.6474440098887 352.14 761.344970703125 352.14 C 755.0424973963613 352.14 749.9333343394886 346.959935136 749.9333343394886 340.57 Z"/></g><g transform="translate(-14,-78) scale(1,1)"><path fill="none" stroke="#000000" d="M 749.9333343394886 340.57 C 749.9333343394886 334.180064864 755.0424973963613 329 761.344970703125 329 C 767.6474440098887 329 772.7566070667614 334.180064864 772.7566070667614 340.57 C 772.7566070667614 346.959935136 767.6474440098887 352.14 761.344970703125 352.14 C 755.0424973963613 352.14 749.9333343394886 346.959935136 749.9333343394886 340.57 Z" stroke-miterlimit="10"/></g><g transform="translate(-14,-78) scale(1,1)"><path fill="none" stroke="#000000" d="M 761.344970703125 352.14 L 761.344970703125 374.86" stroke-miterlimit="10"/></g><g transform="translate(-14,-78) scale(1,1)"><path fill="none" stroke="#000000" d="M 749.2620616122159 360.65999999999997 L 773.4278797940341 360.65999999999997" stroke-miterlimit="10"/></g><g transform="translate(-14,-78) scale(1,1)"><path fill="none" stroke="#000000" d="M 761.344970703125 374.86 L 744.5631525213068 398" stroke-miterlimit="10"/></g><g transform="translate(-14,-78) scale(1,1)"><path fill="none" stroke="#000000" d="M 761.344970703125 374.86 L 778.1267888849432 398" stroke-miterlimit="10"/></g><g transform="translate(-14,-78) scale(1,1)"><g><path fill="none" stroke="none"/><text fill="#000000" stroke="none" font-family="Arial" font-size="13px" font-style="normal" font-weight="bold" text-decoration="none" x="726.305908203125" y="418.5">BDD Ecoles</text></g></g><g transform="translate(-14,-78) scale(1,1)"><path fill="#C0C0C0" stroke="none" d="M 343 153 C 343 138.6405952 373.4446336 127 411 127 C 448.5553664 127 479 138.6405952 479 153 C 479 167.3594048 448.5553664 179 411 179 C 373.4446336 179 343 167.3594048 343 153 Z" opacity="0.2"/></g><g transform="translate(-14,-78) scale(1,1)"><path fill="#ffffff" stroke="none" d="M 336 146 C 336 131.6405952 366.4446336 120 404 120 C 441.5553664 120 472 131.6405952 472 146 C 472 160.3594048 441.5553664 172 404 172 C 366.4446336 172 336 160.3594048 336 146 Z"/></g><g transform="translate(-14,-78) scale(1,1)"><path fill="none" stroke="#000000" d="M 336 146 C 336 131.6405952 366.4446336 120 404 120 C 441.5553664 120 472 131.6405952 472 146 C 472 160.3594048 441.5553664 172 404 172 C 366.4446336 172 336 160.3594048 336 146 Z" stroke-miterlimit="10"/></g><g transform="translate(-14,-78) scale(1,1)"><g><path fill="none" stroke="none"/><text fill="#000000" stroke="none" font-family="Arial" font-size="13px" font-style="normal" font-weight="bold" text-decoration="none" x="365.8251953125" y="146.5">Visualiser les</text><text fill="#000000" stroke="none" font-family="Arial" font-size="13px" font-style="normal" font-weight="bold" text-decoration="none" x="380.161376953125" y="159.5">visiteurs</text></g></g><g transform="translate(-14,-78) scale(1,1)"><path fill="#C0C0C0" stroke="none" d="M 239 233 C 239 218.6405952 269.4446336 207 307 207 C 344.5553664 207 375 218.6405952 375 233 C 375 247.3594048 344.5553664 259 307 259 C 269.4446336 259 239 247.3594048 239 233 Z" opacity="0.2"/></g><g transform="translate(-14,-78) scale(1,1)"><path fill="#ffffff" stroke="none" d="M 232 226 C 232 211.6405952 262.4446336 200 300 200 C 337.5553664 200 368 211.6405952 368 226 C 368 240.3594048 337.5553664 252 300 252 C 262.4446336 252 232 240.3594048 232 226 Z"/></g><g transform="translate(-14,-78) scale(1,1)"><path fill="none" stroke="#000000" d="M 232 226 C 232 211.6405952 262.4446336 200 300 200 C 337.5553664 200 368 211.6405952 368 226 C 368 240.3594048 337.5553664 252 300 252 C 262.4446336 252 232 240.3594048 232 226 Z" stroke-miterlimit="10"/></g><g transform="translate(-14,-78) scale(1,1)"><g><path fill="none" stroke="none"/><text fill="#000000" stroke="none" font-family="Arial" font-size="13px" font-style="normal" font-weight="bold" text-decoration="none" x="261.8251953125" y="226.5">Visualiser les</text><text fill="#000000" stroke="none" font-family="Arial" font-size="13px" font-style="normal" font-weight="bold" text-decoration="none" x="267.852294921875" y="239.5">formulaires</text></g></g><g transform="translate(-14,-78) scale(1,1)"><path fill="#C0C0C0" stroke="none" d="M 231 305 C 231 290.6405952 266.81721600000003 279 311 279 C 355.18278399999997 279 391 290.6405952 391 305 C 391 319.3594048 355.18278399999997 331 311 331 C 266.81721600000003 331 231 319.3594048 231 305 Z" opacity="0.2"/></g><g transform="translate(-14,-78) scale(1,1)"><path fill="#ffffff" stroke="none" d="M 224 298 C 224 283.6405952 259.81721600000003 272 304 272 C 348.18278399999997 272 384 283.6405952 384 298 C 384 312.3594048 348.18278399999997 324 304 324 C 259.81721600000003 324 224 312.3594048 224 298 Z"/></g><g transform="translate(-14,-78) scale(1,1)"><path fill="none" stroke="#000000" d="M 224 298 C 224 283.6405952 259.81721600000003 272 304 272 C 348.18278399999997 272 384 283.6405952 384 298 C 384 312.3594048 348.18278399999997 324 304 324 C 259.81721600000003 324 224 312.3594048 224 298 Z" stroke-miterlimit="10"/></g><g transform="translate(-14,-78) scale(1,1)"><g><path fill="none" stroke="none"/><text fill="#000000" stroke="none" font-family="Arial" font-size="13px" font-style="normal" font-weight="bold" text-decoration="none" x="265.8251953125" y="298.5">Visualiser les</text><text fill="#000000" stroke="none" font-family="Arial" font-size="13px" font-style="normal" font-weight="bold" text-decoration="none" x="260.6455078125" y="311.5">établissements</text></g></g><g transform="translate(-14,-78) scale(1,1)"><path fill="none" stroke="#000000" d="M 479 293 L 385 296" stroke-miterlimit="10" stroke-dasharray="3"/></g><g transform="translate(-14,-78) scale(1,1)"><path fill="none" stroke="#000000" d="M 395.02322521512843 291.468448799052 L 385 296 L 395.2917811024617 299.883199935493" stroke-miterlimit="10"/></g><g transform="translate(-14,-78) scale(1,1)"><g><path fill="none" stroke="none"/><text fill="#000000" stroke="none" font-family="Arial" font-size="13px" font-style="normal" font-weight="normal" text-decoration="none" x="399.5" y="291.5">«include»</text></g></g><g transform="translate(-14,-78) scale(1,1)"><path fill="#C0C0C0" stroke="none" d="M 479 378.5 C 479 358.8938896 502.0573328 343 530.5 343 C 558.9426672 343 582 358.8938896 582 378.5 C 582 398.1061104 558.9426672 414 530.5 414 C 502.0573328 414 479 398.1061104 479 378.5 Z" opacity="0.2"/></g><g transform="translate(-14,-78) scale(1,1)"><path fill="#ffffff" stroke="none" d="M 472 371.5 C 472 351.8938896 495.0573328 336 523.5 336 C 551.9426672 336 575 351.8938896 575 371.5 C 575 391.1061104 551.9426672 407 523.5 407 C 495.0573328 407 472 391.1061104 472 371.5 Z"/></g><g transform="translate(-14,-78) scale(1,1)"><path fill="none" stroke="#000000" d="M 472 371.5 C 472 351.8938896 495.0573328 336 523.5 336 C 551.9426672 336 575 351.8938896 575 371.5 C 575 391.1061104 551.9426672 407 523.5 407 C 495.0573328 407 472 391.1061104 472 371.5 Z" stroke-miterlimit="10"/></g><g transform="translate(-14,-78) scale(1,1)"><g><path fill="none" stroke="none"/><text fill="#000000" stroke="none" font-family="Arial" font-size="13px" font-style="normal" font-weight="bold" text-decoration="none" x="502.905029296875" y="365.5">Ajouter</text><text fill="#000000" stroke="none" font-family="Arial" font-size="13px" font-style="normal" font-weight="bold" text-decoration="none" x="500.3818359375" y="378.5">modifier</text><text fill="#000000" stroke="none" font-family="Arial" font-size="13px" font-style="normal" font-weight="bold" text-decoration="none" x="494.602294921875" y="391.5">supprimer</text></g></g><g transform="translate(-14,-78) scale(1,1)"><path fill="#C0C0C0" stroke="none" d="M 231 385 C 231 370.6405952 261.4446336 359 299 359 C 336.5553664 359 367 370.6405952 367 385 C 367 399.3594048 336.5553664 411 299 411 C 261.4446336 411 231 399.3594048 231 385 Z" opacity="0.2"/></g><g transform="translate(-14,-78) scale(1,1)"><path fill="#ffffff" stroke="none" d="M 224 378 C 224 363.6405952 254.4446336 352 292 352 C 329.5553664 352 360 363.6405952 360 378 C 360 392.3594048 329.5553664 404 292 404 C 254.4446336 404 224 392.3594048 224 378 Z"/></g><g transform="translate(-14,-78) scale(1,1)"><path fill="none" stroke="#000000" d="M 224 378 C 224 363.6405952 254.4446336 352 292 352 C 329.5553664 352 360 363.6405952 360 378 C 360 392.3594048 329.5553664 404 292 404 C 254.4446336 404 224 392.3594048 224 378 Z" stroke-miterlimit="10"/></g><g transform="translate(-14,-78) scale(1,1)"><g><path fill="none" stroke="none"/><text fill="#000000" stroke="none" font-family="Arial" font-size="13px" font-style="normal" font-weight="bold" text-decoration="none" x="253.8251953125" y="378.5">Visualiser les</text><text fill="#000000" stroke="none" font-family="Arial" font-size="13px" font-style="normal" font-weight="bold" text-decoration="none" x="261.655029296875" y="391.5">formations</text></g></g><g transform="translate(-14,-78) scale(1,1)"><path fill="#C0C0C0" stroke="none" d="M 231 457 C 231 442.6405952 261.4446336 431 299 431 C 336.5553664 431 367 442.6405952 367 457 C 367 471.3594048 336.5553664 483 299 483 C 261.4446336 483 231 471.3594048 231 457 Z" opacity="0.2"/></g><g transform="translate(-14,-78) scale(1,1)"><path fill="#ffffff" stroke="none" d="M 224 450 C 224 435.6405952 254.4446336 424 292 424 C 329.5553664 424 360 435.6405952 360 450 C 360 464.3594048 329.5553664 476 292 476 C 254.4446336 476 224 464.3594048 224 450 Z"/></g><g transform="translate(-14,-78) scale(1,1)"><path fill="none" stroke="#000000" d="M 224 450 C 224 435.6405952 254.4446336 424 292 424 C 329.5553664 424 360 435.6405952 360 450 C 360 464.3594048 329.5553664 476 292 476 C 254.4446336 476 224 464.3594048 224 450 Z" stroke-miterlimit="10"/></g><g transform="translate(-14,-78) scale(1,1)"><g><path fill="none" stroke="none"/><text fill="#000000" stroke="none" font-family="Arial" font-size="13px" font-style="normal" font-weight="bold" text-decoration="none" x="253.8251953125" y="450.5">Visualiser les</text><text fill="#000000" stroke="none" font-family="Arial" font-size="13px" font-style="normal" font-weight="bold" text-decoration="none" x="256.589599609375" y="463.5">événements</text></g></g><g transform="translate(-14,-78) scale(1,1)"><path fill="#C0C0C0" stroke="none" d="M 479 458.5 C 479 438.8938896 502.0573328 423 530.5 423 C 558.9426672 423 582 438.8938896 582 458.5 C 582 478.1061104 558.9426672 494 530.5 494 C 502.0573328 494 479 478.1061104 479 458.5 Z" opacity="0.2"/></g><g transform="translate(-14,-78) scale(1,1)"><path fill="#ffffff" stroke="none" d="M 472 451.5 C 472 431.8938896 495.0573328 416 523.5 416 C 551.9426672 416 575 431.8938896 575 451.5 C 575 471.1061104 551.9426672 487 523.5 487 C 495.0573328 487 472 471.1061104 472 451.5 Z"/></g><g transform="translate(-14,-78) scale(1,1)"><path fill="none" stroke="#000000" d="M 472 451.5 C 472 431.8938896 495.0573328 416 523.5 416 C 551.9426672 416 575 431.8938896 575 451.5 C 575 471.1061104 551.9426672 487 523.5 487 C 495.0573328 487 472 471.1061104 472 451.5 Z" stroke-miterlimit="10"/></g><g transform="translate(-14,-78) scale(1,1)"><g><path fill="none" stroke="none"/><text fill="#000000" stroke="none" font-family="Arial" font-size="13px" font-style="normal" font-weight="bold" text-decoration="none" x="502.905029296875" y="445.5">Ajouter</text><text fill="#000000" stroke="none" font-family="Arial" font-size="13px" font-style="normal" font-weight="bold" text-decoration="none" x="500.3818359375" y="458.5">modifier</text><text fill="#000000" stroke="none" font-family="Arial" font-size="13px" font-style="normal" font-weight="bold" text-decoration="none" x="494.602294921875" y="471.5">supprimer</text></g></g><g transform="translate(-14,-78) scale(1,1)"><path fill="none" stroke="#000000" d="M 471 373 L 361 376" stroke-miterlimit="10" stroke-dasharray="3"/></g><g transform="translate(-14,-78) scale(1,1)"><path fill="none" stroke="#000000" d="M 371.04413510011506 371.5149860545772 L 361 376 L 371.27365981496985 379.9308922659205" stroke-miterlimit="10"/></g><g transform="translate(-14,-78) scale(1,1)"><g><path fill="none" stroke="none"/><text fill="#000000" stroke="none" font-family="Arial" font-size="13px" font-style="normal" font-weight="normal" text-decoration="none" x="386.5" y="368.5">«include»</text></g></g><g transform="translate(-14,-78) scale(1,1)"><path fill="none" stroke="#000000" d="M 471 451 L 361 450" stroke-miterlimit="10" stroke-dasharray="3"/></g><g transform="translate(-14,-78) scale(1,1)"><path fill="none" stroke="#000000" d="M 371.200521700408 445.8830403160214 L 361 450 L 371.12398817641196 454.3017279555861" stroke-miterlimit="10"/></g><g transform="translate(-14,-78) scale(1,1)"><g><path fill="none" stroke="none"/><text fill="#000000" stroke="none" font-family="Arial" font-size="13px" font-style="normal" font-weight="normal" text-decoration="none" x="383.5" y="443.5">«include»</text></g></g><g transform="translate(-14,-78) scale(1,1)"><path fill="none" stroke="#000000" d="M 719 330 L 688 296 L 584 293" stroke-miterlimit="10"/></g><g transform="translate(-14,-78) scale(1,1)"><path fill="none" stroke="#000000" d="M 719 375 L 576 372" stroke-miterlimit="10"/></g><g transform="translate(-14,-78) scale(1,1)"><path fill="none" stroke="#000000" d="M 576 450 L 680 448 L 719 413" stroke-miterlimit="10"/></g><g transform="translate(-14,-78) scale(1,1)"><path fill="#C0C0C0" stroke="none" d="M 471 225 C 471 210.6405952 503.2354944 199 543 199 C 582.7645056 199 615 210.6405952 615 225 C 615 239.3594048 582.7645056 251 543 251 C 503.2354944 251 471 239.3594048 471 225 Z" opacity="0.2"/></g><g transform="translate(-14,-78) scale(1,1)"><path fill="#ffffff" stroke="none" d="M 464 218 C 464 203.6405952 496.2354944 192 536 192 C 575.7645056 192 608 203.6405952 608 218 C 608 232.3594048 575.7645056 244 536 244 C 496.2354944 244 464 232.3594048 464 218 Z"/></g><g transform="translate(-14,-78) scale(1,1)"><path fill="none" stroke="#000000" d="M 464 218 C 464 203.6405952 496.2354944 192 536 192 C 575.7645056 192 608 203.6405952 608 218 C 608 232.3594048 575.7645056 244 536 244 C 496.2354944 244 464 232.3594048 464 218 Z" stroke-miterlimit="10"/></g><g transform="translate(-14,-78) scale(1,1)"><g><path fill="none" stroke="none"/><text fill="#000000" stroke="none" font-family="Arial" font-size="13px" font-style="normal" font-weight="bold" text-decoration="none" x="501.319580078125" y="218.5">Exporter les</text><text fill="#000000" stroke="none" font-family="Arial" font-size="13px" font-style="normal" font-weight="bold" text-decoration="none" x="511.06005859375" y="231.5">données</text></g></g><g transform="translate(-14,-78) scale(1,1)"><path fill="none" stroke="#000000" d="M 369 224 L 463 220" stroke-miterlimit="10" stroke-dasharray="3"/></g><g transform="translate(-14,-78) scale(1,1)"><path fill="none" stroke="#000000" d="M 453.0254802740569 224.63777492303933 L 463 220 L 452.66754736500866 216.22635156040468" stroke-miterlimit="10"/></g><g transform="translate(-14,-78) scale(1,1)"><g><path fill="none" stroke="none"/><text fill="#000000" stroke="none" font-family="Arial" font-size="13px" font-style="normal" font-weight="normal" text-decoration="none" x="387.5" y="198.5">«extend»</text></g></g><g transform="translate(-14,-78) scale(1,1)"><path fill="none" stroke="#000000" d="M 104 231 L 144 144 L 335 145" stroke-miterlimit="10"/></g><g transform="translate(-14,-78) scale(1,1)"><path fill="none" stroke="#000000" d="M 231 225 L 136 224 L 126 235" stroke-miterlimit="10"/></g><g transform="translate(-14,-78) scale(1,1)"><path fill="none" stroke="#000000" d="M 223 449 L 144 448 L 104 360" stroke-miterlimit="10"/></g><g transform="translate(-14,-78) scale(1,1)"><path fill="none" stroke="#000000" d="M 223 377 L 144 376 L 126 356" stroke-miterlimit="10"/></g><g transform="translate(-14,-78) scale(1,1)"><path fill="none" stroke="#000000" d="M 223 297 L 126 296" stroke-miterlimit="10"/></g><g transform="translate(-14,-78) scale(1,1)"><path fill="none" stroke="#000000" d="M 473 147 L 687 151" stroke-miterlimit="10"/></g><g transform="translate(-14,-78) scale(1,1)"><path fill="none" stroke="#000000" d="M 689 201 L 672 216 L 609 217" stroke-miterlimit="10"/></g></g></svg>