<?xml version="1.0" encoding="utf-8"?>
<!-- Generator: Adobe Illustrator 23.0.1, SVG Export Plug-In . SVG Version: 6.00 Build 0)  -->
<svg version="1.1" id="Layer_1" xmlns="http://www.w3.org/2000/svg" xmlns:xlink="http://www.w3.org/1999/xlink" x="0px" y="0px"
	 viewBox="0 0 860 788" style="enable-background:new 0 0 860 788;" xml:space="preserve">
<style type="text/css">
	.st0{opacity:0.2;fill:#C0C0C0;enable-background:new    ;}
	.st1{fill:#FFFFFF;}
	.st2{fill:none;stroke:#000000;stroke-miterlimit:10;}
	.st3{font-family:'Arial-BoldMT';}
	.st4{font-size:13px;}
	.st5{fill:none;stroke:#000000;stroke-miterlimit:10;stroke-dasharray:3;}
	.st6{font-family:'ArialMT';}
</style>
<g>
	<g>
		<g>
			<g>
				<g transform="translate(-22,-54) scale(1,1)">
					<rect x="183" y="71" class="st0" width="536" height="768"/>
				</g>
				<g>
					<g transform="translate(-22,-54) scale(1,1)">
						<rect x="176" y="64" class="st1" width="536" height="768"/>
					</g>
					<g transform="translate(-22,-54) scale(1,1)">
						<path class="st2" d="M176,64h536v768H176V64z"/>
					</g>
				</g>
			</g>
			<g transform="translate(-22,-54) scale(1,1)">
				<g>
					<text transform="matrix(1 0 0 1 397.7542 83.5)" class="st3 st4">Application JPO</text>
				</g>
			</g>
		</g>
		<g>
			<g>
				<g transform="translate(-22,-54) scale(1,1)">
					<path class="st1" d="M55.4,362c0-9.4,7.4-17,16.6-17s16.6,7.6,16.6,17c0,9.4-7.4,17-16.6,17S55.4,371.4,55.4,362z"/>
				</g>
				<g transform="translate(-22,-54) scale(1,1)">
					<path class="st2" d="M55.4,362c0-9.4,7.4-17,16.6-17s16.6,7.6,16.6,17c0,9.4-7.4,17-16.6,17S55.4,371.4,55.4,362z"/>
				</g>
				<g transform="translate(-22,-54) scale(1,1)">
					<path class="st2" d="M72,379v33"/>
				</g>
				<g transform="translate(-22,-54) scale(1,1)">
					<path class="st2" d="M54.5,391.4h35.1"/>
				</g>
				<g transform="translate(-22,-54) scale(1,1)">
					<path class="st2" d="M72,412l-24.3,34"/>
				</g>
				<g transform="translate(-22,-54) scale(1,1)">
					<path class="st2" d="M72,412l24.3,34"/>
				</g>
			</g>
			<g transform="translate(-22,-54) scale(1,1)">
				<g>
					<text transform="matrix(1 0 0 1 50.4434 466.5)" class="st3 st4">Visiteur</text>
				</g>
			</g>
		</g>
		<g>
			<g>
				<g transform="translate(-22,-54) scale(1,1)">
					<path class="st1" d="M799.4,154c0-9.4,7.4-17,16.6-17s16.6,7.6,16.6,17s-7.4,17-16.6,17S799.4,163.4,799.4,154z"/>
				</g>
				<g transform="translate(-22,-54) scale(1,1)">
					<path class="st2" d="M799.4,154c0-9.4,7.4-17,16.6-17s16.6,7.6,16.6,17s-7.4,17-16.6,17S799.4,163.4,799.4,154z"/>
				</g>
				<g transform="translate(-22,-54) scale(1,1)">
					<path class="st2" d="M816,171v33"/>
				</g>
				<g transform="translate(-22,-54) scale(1,1)">
					<path class="st2" d="M798.5,183.4h35.1"/>
				</g>
				<g transform="translate(-22,-54) scale(1,1)">
					<path class="st2" d="M816,204l-24.3,34"/>
				</g>
				<g transform="translate(-22,-54) scale(1,1)">
					<path class="st2" d="M816,204l24.3,34"/>
				</g>
			</g>
			<g transform="translate(-22,-54) scale(1,1)">
				<g>
					<text transform="matrix(1 0 0 1 775.6638 258.5)" class="st3 st4">BDD Visiteurs</text>
				</g>
			</g>
		</g>
		<g>
			<g>
				<g transform="translate(-22,-54) scale(1,1)">
					<path class="st1" d="M811.4,490c0-9.4,7.4-17,16.6-17s16.6,7.6,16.6,17c0,9.4-7.4,17-16.6,17S811.4,499.4,811.4,490z"/>
				</g>
				<g>
					<g transform="translate(-22,-54) scale(1,1)">
						<path class="st2" d="M811.4,490c0-9.4,7.4-17,16.6-17s16.6,7.6,16.6,17c0,9.4-7.4,17-16.6,17S811.4,499.4,811.4,490z"/>
					</g>
					<g transform="translate(-22,-54) scale(1,1)">
						<path class="st2" d="M828,507v33"/>
					</g>
					<g transform="translate(-22,-54) scale(1,1)">
						<path class="st2" d="M810.5,519.4h35.1"/>
					</g>
					<g transform="translate(-22,-54) scale(1,1)">
						<path class="st2" d="M828,540l-24.3,34"/>
					</g>
					<g transform="translate(-22,-54) scale(1,1)">
						<path class="st2" d="M828,540l24.3,34"/>
					</g>
				</g>
			</g>
			<g transform="translate(-22,-54) scale(1,1)">
				<g>
					<text transform="matrix(1 0 0 1 792.9609 594.5)" class="st3 st4">BDD Ecoles</text>
				</g>
			</g>
		</g>
		<g>
			<g transform="translate(-22,-54) scale(1,1)">
				<path class="st0" d="M231,312c0-9.4,28.7-17,64-17s64,7.6,64,17s-28.7,17-64,17S231,321.4,231,312z"/>
			</g>
			<g transform="translate(-22,-54) scale(1,1)">
				<path class="st1" d="M224,305c0-9.4,28.7-17,64-17s64,7.6,64,17s-28.7,17-64,17S224,314.4,224,305z"/>
			</g>
			<g transform="translate(-22,-54) scale(1,1)">
				<path class="st2" d="M224,305c0-9.4,28.7-17,64-17s64,7.6,64,17s-28.7,17-64,17S224,314.4,224,305z"/>
			</g>
			<g transform="translate(-22,-54) scale(1,1)">
				<g>
					<text transform="matrix(1 0 0 1 248.6982 310)" class="st3 st4">Se connecter</text>
				</g>
			</g>
		</g>
		<g>
			<g transform="translate(-22,-54) scale(1,1)">
				<path class="st0" d="M351,240c0-9.4,28.7-17,64-17s64,7.6,64,17s-28.7,17-64,17S351,249.4,351,240z"/>
			</g>
			<g transform="translate(-22,-54) scale(1,1)">
				<path class="st1" d="M344,233c0-9.4,28.7-17,64-17s64,7.6,64,17s-28.7,17-64,17S344,242.4,344,233z"/>
			</g>
			<g transform="translate(-22,-54) scale(1,1)">
				<path class="st2" d="M344,233c0-9.4,28.7-17,64-17s64,7.6,64,17s-28.7,17-64,17S344,242.4,344,233z"/>
			</g>
			<g transform="translate(-22,-54) scale(1,1)">
				<g>
					<text transform="matrix(1 0 0 1 370.355 237)" class="st3 st4">S&apos;enregistrer</text>
				</g>
			</g>
		</g>
		<g>
			<g transform="translate(-22,-54) scale(1,1)">
				<path class="st0" d="M199,376c0-9.4,43.7-17,97.5-17s97.5,7.6,97.5,17s-43.7,17-97.5,17S199,385.4,199,376z"/>
			</g>
			<g transform="translate(-22,-54) scale(1,1)">
				<path class="st1" d="M192,369c0-9.4,43.7-17,97.5-17s97.5,7.6,97.5,17s-43.7,17-97.5,17S192,378.4,192,369z"/>
			</g>
			<g transform="translate(-22,-54) scale(1,1)">
				<path class="st2" d="M192,369c0-9.4,43.7-17,97.5-17s97.5,7.6,97.5,17s-43.7,17-97.5,17S192,378.4,192,369z"/>
			</g>
			<g transform="translate(-22,-54) scale(1,1)">
				<g>
					<text transform="matrix(1 0 0 1 227.5305 373)" class="st3 st4">Naviguer sur la carte</text>
				</g>
			</g>
		</g>
		<g>
			<g transform="translate(-22,-54) scale(1,1)">
				<path class="st0" d="M399,528c0-9.4,68.9-17,154-17s154,7.6,154,17s-68.9,17-154,17S399,537.4,399,528z"/>
			</g>
			<g transform="translate(-22,-54) scale(1,1)">
				<path class="st1" d="M392,521c0-9.4,68.9-17,154-17s154,7.6,154,17s-68.9,17-154,17S392,530.4,392,521z"/>
			</g>
			<g transform="translate(-22,-54) scale(1,1)">
				<path class="st2" d="M392,521c0-9.4,68.9-17,154-17s154,7.6,154,17s-68.9,17-154,17S392,530.4,392,521z"/>
			</g>
			<g transform="translate(-22,-54) scale(1,1)">
				<g>
					<text transform="matrix(1 0 0 1 446.0906 525)" class="st3 st4">Mettre des évènements en favoris</text>
				</g>
			</g>
		</g>
		<g>
			<g transform="translate(-22,-54) scale(1,1)">
				<path class="st0" d="M447,144c0-9.4,46.1-17,103-17s103,7.6,103,17s-46.1,17-103,17S447,153.4,447,144z"/>
			</g>
			<g transform="translate(-22,-54) scale(1,1)">
				<path class="st1" d="M440,137c0-9.4,46.1-17,103-17s103,7.6,103,17s-46.1,17-103,17S440,146.4,440,137z"/>
			</g>
			<g transform="translate(-22,-54) scale(1,1)">
				<path class="st2" d="M440,137c0-9.4,46.1-17,103-17s103,7.6,103,17s-46.1,17-103,17S440,146.4,440,137z"/>
			</g>
			<g transform="translate(-22,-54) scale(1,1)">
				<g>
					<text transform="matrix(1 0 0 1 480.8691 144)" class="st3 st4">Remplir un formulaire</text>
				</g>
			</g>
		</g>
		<g>
			<g transform="translate(-22,-54) scale(1,1)">
				<path class="st0" d="M199,480c0-9.4,61.8-17,138-17s138,7.6,138,17s-61.8,17-138,17S199,489.4,199,480z"/>
			</g>
			<g transform="translate(-22,-54) scale(1,1)">
				<path class="st1" d="M192,473c0-9.4,61.8-17,138-17s138,7.6,138,17s-61.8,17-138,17S192,482.4,192,473z"/>
			</g>
			<g transform="translate(-22,-54) scale(1,1)">
				<path class="st2" d="M192,473c0-9.4,61.8-17,138-17s138,7.6,138,17s-61.8,17-138,17S192,482.4,192,473z"/>
			</g>
			<g transform="translate(-22,-54) scale(1,1)">
				<g>
					<text transform="matrix(1 0 0 1 241.4844 477)" class="st3 st4">Afficher le planning de la JPO</text>
				</g>
			</g>
		</g>
		<g>
			<g transform="translate(-22,-54) scale(1,1)">
				<path class="st0" d="M191,576c0-9.4,56.2-17,125.5-17S442,566.6,442,576s-56.2,17-125.5,17S191,585.4,191,576z"/>
			</g>
			<g transform="translate(-22,-54) scale(1,1)">
				<path class="st1" d="M184,569c0-9.4,56.2-17,125.5-17S435,559.6,435,569s-56.2,17-125.5,17S184,578.4,184,569z"/>
			</g>
			<g transform="translate(-22,-54) scale(1,1)">
				<path class="st2" d="M184,569c0-9.4,56.2-17,125.5-17S435,559.6,435,569s-56.2,17-125.5,17S184,578.4,184,569z"/>
			</g>
			<g transform="translate(-22,-54) scale(1,1)">
				<g>
					<text transform="matrix(1 0 0 1 229.3062 573)" class="st3 st4">Afficher les établissements</text>
				</g>
			</g>
		</g>
		<g>
			<g transform="translate(-22,-54) scale(1,1)">
				<path class="st0" d="M471,632c0-9.4,51.7-17,115.5-17S702,622.6,702,632s-51.7,17-115.5,17S471,641.4,471,632z"/>
			</g>
			<g transform="translate(-22,-54) scale(1,1)">
				<path class="st1" d="M464,625c0-9.4,51.7-17,115.5-17S695,615.6,695,625s-51.7,17-115.5,17S464,634.4,464,625z"/>
			</g>
			<g transform="translate(-22,-54) scale(1,1)">
				<path class="st2" d="M464,625c0-9.4,51.7-17,115.5-17S695,615.6,695,625s-51.7,17-115.5,17S464,634.4,464,625z"/>
			</g>
			<g transform="translate(-22,-54) scale(1,1)">
				<g>
					<text transform="matrix(1 0 0 1 507.5361 629)" class="st3 st4">Afficher leurs formations</text>
				</g>
			</g>
		</g>
		<g>
			<g>
				<g transform="translate(-22,-54) scale(1,1)">
					<path class="st2" d="M353,292l414-82"/>
				</g>
				<g transform="translate(-22,-54) scale(1,1)">
					<path class="st2" d="M473,228l294-24"/>
				</g>
			</g>
			<g transform="translate(-22,-54) scale(1,1)">
				<path class="st2" d="M621,155l146,34"/>
			</g>
		</g>
		<g>
			<g transform="translate(-22,-54) scale(1,1)">
				<path class="st0" d="M199,768c0-9.4,75.9-17,169.5-17S538,758.6,538,768s-75.9,17-169.5,17S199,777.4,199,768z"/>
			</g>
			<g transform="translate(-22,-54) scale(1,1)">
				<path class="st1" d="M192,761c0-9.4,75.9-17,169.5-17S531,751.6,531,761s-75.9,17-169.5,17S192,770.4,192,761z"/>
			</g>
			<g transform="translate(-22,-54) scale(1,1)">
				<path class="st2" d="M192,761c0-9.4,75.9-17,169.5-17S531,751.6,531,761s-75.9,17-169.5,17S192,770.4,192,761z"/>
			</g>
			<g transform="translate(-22,-54) scale(1,1)">
				<g>
					<text transform="matrix(1 0 0 1 252.0115 765)" class="st3 st4">Remplir un formulaire de satisfaction</text>
				</g>
			</g>
		</g>
		<g>
			<g transform="translate(-22,-54) scale(1,1)">
				<path class="st0" d="M191,152c0-9.4,50.4-17,112.5-17S416,142.6,416,152s-50.4,17-112.5,17S191,161.4,191,152z"/>
			</g>
			<g transform="translate(-22,-54) scale(1,1)">
				<path class="st1" d="M184,145c0-9.4,50.4-17,112.5-17S409,135.6,409,145s-50.4,17-112.5,17S184,154.4,184,145z"/>
			</g>
			<g transform="translate(-22,-54) scale(1,1)">
				<path class="st2" d="M184,145c0-9.4,50.4-17,112.5-17S409,135.6,409,145s-50.4,17-112.5,17S184,154.4,184,145z"/>
			</g>
			<g transform="translate(-22,-54) scale(1,1)">
				<g>
					<text transform="matrix(1 0 0 1 225.4978 150)" class="st3 st4">Utiliser un réseau social</text>
				</g>
			</g>
		</g>
		<g>
			<g transform="translate(-22,-54) scale(1,1)">
				<path class="st2" d="M701,520h27l55,9"/>
			</g>
			<g>
				<g transform="translate(-22,-54) scale(1,1)">
					<path class="st2" d="M436,568h92l255-27"/>
				</g>
				<g transform="translate(-22,-54) scale(1,1)">
					<path class="st2" d="M696,624h32l55-48"/>
				</g>
			</g>
		</g>
		<g>
			<g transform="translate(-22,-54) scale(1,1)">
				<path class="st0" d="M367,424c0-9.4,69.6-17,155.5-17S678,414.6,678,424s-69.6,17-155.5,17S367,433.4,367,424z"/>
			</g>
			<g transform="translate(-22,-54) scale(1,1)">
				<path class="st1" d="M360,417c0-9.4,69.6-17,155.5-17S671,407.6,671,417s-69.6,17-155.5,17S360,426.4,360,417z"/>
			</g>
			<g transform="translate(-22,-54) scale(1,1)">
				<path class="st2" d="M360,417c0-9.4,69.6-17,155.5-17S671,407.6,671,417s-69.6,17-155.5,17S360,426.4,360,417z"/>
			</g>
			<g transform="translate(-22,-54) scale(1,1)">
				<g>
					<text transform="matrix(1 0 0 1 419.1489 424)" class="st3 st4">Afficher un itinéraire personnalisé</text>
				</g>
			</g>
		</g>
		<g>
			<g transform="translate(-22,-54) scale(1,1)">
				<path class="st0" d="M447,337c0-14.4,48.4-26,108-26s108,11.6,108,26s-48.4,26-108,26S447,351.4,447,337z"/>
			</g>
			<g transform="translate(-22,-54) scale(1,1)">
				<path class="st1" d="M440,330c0-14.4,48.4-26,108-26s108,11.6,108,26s-48.4,26-108,26S440,344.4,440,330z"/>
			</g>
			<g transform="translate(-22,-54) scale(1,1)">
				<path class="st2" d="M440,330c0-14.4,48.4-26,108-26s108,11.6,108,26s-48.4,26-108,26S440,344.4,440,330z"/>
			</g>
			<g transform="translate(-22,-54) scale(1,1)">
				<g>
					<text transform="matrix(1 0 0 1 483.092 330.5)" class="st3 st4">Afficher les marqueurs</text>
					<text transform="matrix(1 0 0 1 492.3596 343.5)" class="st3 st4">des établissements</text>
				</g>
			</g>
		</g>
		<g>
			<g>
				<g transform="translate(-22,-54) scale(1,1)">
					<path class="st5" d="M518,155l-85,60"/>
				</g>
				<g transform="translate(-22,-54) scale(1,1)">
					<path class="st2" d="M438.9,205.7L433,215l10.7-2.4"/>
				</g>
				<g transform="translate(-22,-54) scale(1,1)">
					<g>
						<text transform="matrix(1 0 0 1 479.5 188.5)" class="st6 st4">«extend»</text>
					</g>
				</g>
			</g>
			<g>
				<g transform="translate(-22,-54) scale(1,1)">
					<path class="st5" d="M492,607l-96-20"/>
				</g>
				<g transform="translate(-22,-54) scale(1,1)">
					<path class="st2" d="M406.8,585l-10.8,2l9.1,6.2"/>
				</g>
				<g transform="translate(-22,-54) scale(1,1)">
					<g>
						<text transform="matrix(1 0 0 1 457.5 595.5)" class="st6 st4">«extend»</text>
					</g>
				</g>
			</g>
			<g>
				<g>
					<g transform="translate(-22,-54) scale(1,1)">
						<path class="st5" d="M465,503l-54-12"/>
					</g>
					<g transform="translate(-22,-54) scale(1,1)">
						<path class="st2" d="M421.8,489.1L411,491l9,6.3"/>
					</g>
				</g>
				<g transform="translate(-22,-54) scale(1,1)">
					<g>
						<text transform="matrix(1 0 0 1 460.5 499.5)" class="st6 st4">«extend»</text>
					</g>
				</g>
			</g>
			<g>
				<g>
					<g transform="translate(-22,-54) scale(1,1)">
						<path class="st5" d="M319,163l66,52"/>
					</g>
					<g transform="translate(-22,-54) scale(1,1)">
						<path class="st2" d="M374.4,212l10.6,3l-5.4-9.6"/>
					</g>
				</g>
				<g transform="translate(-22,-54) scale(1,1)">
					<g>
						<text transform="matrix(1 0 0 1 294.5 195.5)" class="st6 st4">«extend»</text>
					</g>
				</g>
			</g>
			<g>
				<g>
					<g transform="translate(-22,-54) scale(1,1)">
						<path class="st5" d="M430,399l-56-12"/>
					</g>
					<g transform="translate(-22,-54) scale(1,1)">
						<path class="st2" d="M384.8,385l-10.8,2l9.1,6.2"/>
					</g>
				</g>
				<g transform="translate(-22,-54) scale(1,1)">
					<g>
						<text transform="matrix(1 0 0 1 407.5 388.5)" class="st6 st4">«extend»</text>
					</g>
				</g>
			</g>
			<g>
				<g>
					<g transform="translate(-22,-54) scale(1,1)">
						<path class="st5" d="M318,287l60-36"/>
					</g>
					<g transform="translate(-22,-54) scale(1,1)">
						<path class="st2" d="M371.5,259.8l6.5-8.8l-10.9,1.6"/>
					</g>
				</g>
				<g transform="translate(-22,-54) scale(1,1)">
					<g>
						<text transform="matrix(1 0 0 1 294.5 268.5)" class="st6 st4">«include»</text>
					</g>
				</g>
			</g>
			<g>
				<g>
					<g transform="translate(-22,-54) scale(1,1)">
						<path class="st5" d="M439,346l-51,8"/>
					</g>
					<g transform="translate(-22,-54) scale(1,1)">
						<path class="st2" d="M397.4,348.3L388,354l10.7,2.6"/>
					</g>
				</g>
				<g transform="translate(-22,-54) scale(1,1)">
					<g>
						<text transform="matrix(1 0 0 1 375.5 347.5)" class="st6 st4">«extend»</text>
					</g>
				</g>
			</g>
		</g>
		<g>
			<g transform="translate(-22,-54) scale(1,1)">
				<path class="st0" d="M207,671c0-13.3,53.5-24,119.5-24S446,657.7,446,671s-53.5,24-119.5,24S207,684.3,207,671z"/>
			</g>
			<g>
				<g transform="translate(-22,-54) scale(1,1)">
					<path class="st1" d="M200,664c0-13.3,53.5-24,119.5-24S439,650.7,439,664s-53.5,24-119.5,24S200,677.3,200,664z"/>
				</g>
				<g>
					<g transform="translate(-22,-54) scale(1,1)">
						<path class="st2" d="M200,664c0-13.3,53.5-24,119.5-24S439,650.7,439,664s-53.5,24-119.5,24S200,677.3,200,664z"/>
					</g>
					<g transform="translate(-22,-54) scale(1,1)">
						<g>
							<text transform="matrix(1 0 0 1 260.3748 671)" class="st3 st4">Visualiser les favoris</text>
						</g>
					</g>
				</g>
			</g>
		</g>
		<g>
			<g>
				<g transform="translate(-22,-54) scale(1,1)">
					<path class="st2" d="M113,382l23-14h55"/>
				</g>
				<g transform="translate(-22,-54) scale(1,1)">
					<path class="st2" d="M107,343l21-39l95,1"/>
				</g>
			</g>
			<g>
				<g transform="translate(-22,-54) scale(1,1)">
					<path class="st2" d="M113,441l39,31h39"/>
				</g>
				<g transform="translate(-22,-54) scale(1,1)">
					<path class="st2" d="M108,473l52,95h23"/>
				</g>
				<g transform="translate(-22,-54) scale(1,1)">
					<path class="st2" d="M79,473l33,287h79"/>
				</g>
				<g transform="translate(-22,-54) scale(1,1)">
					<path class="st2" d="M94,473l66,191h39"/>
				</g>
			</g>
		</g>
	</g>
</g>
</svg>
