<svg version="1.1" xmlns="http://www.w3.org/2000/svg" xmlns:xlink="http://www.w3.org/1999/xlink" width="707" height="488"><defs/><g><text fill="#eeeeee" stroke="none" font-family="Arial" font-size="24px" font-style="normal" font-weight="normal" text-decoration="none" x="0" y="0">UNREGISTERED</text><text fill="#eeeeee" stroke="none" font-family="Arial" font-size="24px" font-style="normal" font-weight="normal" text-decoration="none" x="0" y="30">UNREGISTERED</text><text fill="#eeeeee" stroke="none" font-family="Arial" font-size="24px" font-style="normal" font-weight="normal" text-decoration="none" x="0" y="60">UNREGISTERED</text><text fill="#eeeeee" stroke="none" font-family="Arial" font-size="24px" font-style="normal" font-weight="normal" text-decoration="none" x="0" y="90">UNREGISTERED</text><text fill="#eeeeee" stroke="none" font-family="Arial" font-size="24px" font-style="normal" font-weight="normal" text-decoration="none" x="0" y="120">UNREGISTERED</text><text fill="#eeeeee" stroke="none" font-family="Arial" font-size="24px" font-style="normal" font-weight="normal" text-decoration="none" x="0" y="150">UNREGISTERED</text><text fill="#eeeeee" stroke="none" font-family="Arial" font-size="24px" font-style="normal" font-weight="normal" text-decoration="none" x="0" y="180">UNREGISTERED</text><text fill="#eeeeee" stroke="none" font-family="Arial" font-size="24px" font-style="normal" font-weight="normal" text-decoration="none" x="0" y="210">UNREGISTERED</text><text fill="#eeeeee" stroke="none" font-family="Arial" font-size="24px" font-style="normal" font-weight="normal" text-decoration="none" x="0" y="240">UNREGISTERED</text><text fill="#eeeeee" stroke="none" font-family="Arial" font-size="24px" font-style="normal" font-weight="normal" text-decoration="none" x="0" y="270">UNREGISTERED</text><text fill="#eeeeee" stroke="none" font-family="Arial" font-size="24px" font-style="normal" font-weight="normal" text-decoration="none" x="0" y="300">UNREGISTERED</text><text fill="#eeeeee" stroke="none" font-family="Arial" font-size="24px" font-style="normal" font-weight="normal" text-decoration="none" x="0" y="330">UNREGISTERED</text><text fill="#eeeeee" stroke="none" font-family="Arial" font-size="24px" font-style="normal" font-weight="normal" text-decoration="none" x="0" y="360">UNREGISTERED</text><text fill="#eeeeee" stroke="none" font-family="Arial" font-size="24px" font-style="normal" font-weight="normal" text-decoration="none" x="0" y="390">UNREGISTERED</text><text fill="#eeeeee" stroke="none" font-family="Arial" font-size="24px" font-style="normal" font-weight="normal" text-decoration="none" x="0" y="420">UNREGISTERED</text><text fill="#eeeeee" stroke="none" font-family="Arial" font-size="24px" font-style="normal" font-weight="normal" text-decoration="none" x="0" y="450">UNREGISTERED</text><text fill="#eeeeee" stroke="none" font-family="Arial" font-size="24px" font-style="normal" font-weight="normal" text-decoration="none" x="0" y="480">UNREGISTERED</text><text fill="#eeeeee" stroke="none" font-family="Arial" font-size="24px" font-style="normal" font-weight="normal" text-decoration="none" x="200" y="0">UNREGISTERED</text><text fill="#eeeeee" stroke="none" font-family="Arial" font-size="24px" font-style="normal" font-weight="normal" text-decoration="none" x="200" y="30">UNREGISTERED</text><text fill="#eeeeee" stroke="none" font-family="Arial" font-size="24px" font-style="normal" font-weight="normal" text-decoration="none" x="200" y="60">UNREGISTERED</text><text fill="#eeeeee" stroke="none" font-family="Arial" font-size="24px" font-style="normal" font-weight="normal" text-decoration="none" x="200" y="90">UNREGISTERED</text><text fill="#eeeeee" stroke="none" font-family="Arial" font-size="24px" font-style="normal" font-weight="normal" text-decoration="none" x="200" y="120">UNREGISTERED</text><text fill="#eeeeee" stroke="none" font-family="Arial" font-size="24px" font-style="normal" font-weight="normal" text-decoration="none" x="200" y="150">UNREGISTERED</text><text fill="#eeeeee" stroke="none" font-family="Arial" font-size="24px" font-style="normal" font-weight="normal" text-decoration="none" x="200" y="180">UNREGISTERED</text><text fill="#eeeeee" stroke="none" font-family="Arial" font-size="24px" font-style="normal" font-weight="normal" text-decoration="none" x="200" y="210">UNREGISTERED</text><text fill="#eeeeee" stroke="none" font-family="Arial" font-size="24px" font-style="normal" font-weight="normal" text-decoration="none" x="200" y="240">UNREGISTERED</text><text fill="#eeeeee" stroke="none" font-family="Arial" font-size="24px" font-style="normal" font-weight="normal" text-decoration="none" x="200" y="270">UNREGISTERED</text><text fill="#eeeeee" stroke="none" font-family="Arial" font-size="24px" font-style="normal" font-weight="normal" text-decoration="none" x="200" y="300">UNREGISTERED</text><text fill="#eeeeee" stroke="none" font-family="Arial" font-size="24px" font-style="normal" font-weight="normal" text-decoration="none" x="200" y="330">UNREGISTERED</text><text fill="#eeeeee" stroke="none" font-family="Arial" font-size="24px" font-style="normal" font-weight="normal" text-decoration="none" x="200" y="360">UNREGISTERED</text><text fill="#eeeeee" stroke="none" font-family="Arial" font-size="24px" font-style="normal" font-weight="normal" text-decoration="none" x="200" y="390">UNREGISTERED</text><text fill="#eeeeee" stroke="none" font-family="Arial" font-size="24px" font-style="normal" font-weight="normal" text-decoration="none" x="200" y="420">UNREGISTERED</text><text fill="#eeeeee" stroke="none" font-family="Arial" font-size="24px" font-style="normal" font-weight="normal" text-decoration="none" x="200" y="450">UNREGISTERED</text><text fill="#eeeeee" stroke="none" font-family="Arial" font-size="24px" font-style="normal" font-weight="normal" text-decoration="none" x="200" y="480">UNREGISTERED</text><text fill="#eeeeee" stroke="none" font-family="Arial" font-size="24px" font-style="normal" font-weight="normal" text-decoration="none" x="400" y="0">UNREGISTERED</text><text fill="#eeeeee" stroke="none" font-family="Arial" font-size="24px" font-style="normal" font-weight="normal" text-decoration="none" x="400" y="30">UNREGISTERED</text><text fill="#eeeeee" stroke="none" font-family="Arial" font-size="24px" font-style="normal" font-weight="normal" text-decoration="none" x="400" y="60">UNREGISTERED</text><text fill="#eeeeee" stroke="none" font-family="Arial" font-size="24px" font-style="normal" font-weight="normal" text-decoration="none" x="400" y="90">UNREGISTERED</text><text fill="#eeeeee" stroke="none" font-family="Arial" font-size="24px" font-style="normal" font-weight="normal" text-decoration="none" x="400" y="120">UNREGISTERED</text><text fill="#eeeeee" stroke="none" font-family="Arial" font-size="24px" font-style="normal" font-weight="normal" text-decoration="none" x="400" y="150">UNREGISTERED</text><text fill="#eeeeee" stroke="none" font-family="Arial" font-size="24px" font-style="normal" font-weight="normal" text-decoration="none" x="400" y="180">UNREGISTERED</text><text fill="#eeeeee" stroke="none" font-family="Arial" font-size="24px" font-style="normal" font-weight="normal" text-decoration="none" x="400" y="210">UNREGISTERED</text><text fill="#eeeeee" stroke="none" font-family="Arial" font-size="24px" font-style="normal" font-weight="normal" text-decoration="none" x="400" y="240">UNREGISTERED</text><text fill="#eeeeee" stroke="none" font-family="Arial" font-size="24px" font-style="normal" font-weight="normal" text-decoration="none" x="400" y="270">UNREGISTERED</text><text fill="#eeeeee" stroke="none" font-family="Arial" font-size="24px" font-style="normal" font-weight="normal" text-decoration="none" x="400" y="300">UNREGISTERED</text><text fill="#eeeeee" stroke="none" font-family="Arial" font-size="24px" font-style="normal" font-weight="normal" text-decoration="none" x="400" y="330">UNREGISTERED</text><text fill="#eeeeee" stroke="none" font-family="Arial" font-size="24px" font-style="normal" font-weight="normal" text-decoration="none" x="400" y="360">UNREGISTERED</text><text fill="#eeeeee" stroke="none" font-family="Arial" font-size="24px" font-style="normal" font-weight="normal" text-decoration="none" x="400" y="390">UNREGISTERED</text><text fill="#eeeeee" stroke="none" font-family="Arial" font-size="24px" font-style="normal" font-weight="normal" text-decoration="none" x="400" y="420">UNREGISTERED</text><text fill="#eeeeee" stroke="none" font-family="Arial" font-size="24px" font-style="normal" font-weight="normal" text-decoration="none" x="400" y="450">UNREGISTERED</text><text fill="#eeeeee" stroke="none" font-family="Arial" font-size="24px" font-style="normal" font-weight="normal" text-decoration="none" x="400" y="480">UNREGISTERED</text><text fill="#eeeeee" stroke="none" font-family="Arial" font-size="24px" font-style="normal" font-weight="normal" text-decoration="none" x="600" y="0">UNREGISTERED</text><text fill="#eeeeee" stroke="none" font-family="Arial" font-size="24px" font-style="normal" font-weight="normal" text-decoration="none" x="600" y="30">UNREGISTERED</text><text fill="#eeeeee" stroke="none" font-family="Arial" font-size="24px" font-style="normal" font-weight="normal" text-decoration="none" x="600" y="60">UNREGISTERED</text><text fill="#eeeeee" stroke="none" font-family="Arial" font-size="24px" font-style="normal" font-weight="normal" text-decoration="none" x="600" y="90">UNREGISTERED</text><text fill="#eeeeee" stroke="none" font-family="Arial" font-size="24px" font-style="normal" font-weight="normal" text-decoration="none" x="600" y="120">UNREGISTERED</text><text fill="#eeeeee" stroke="none" font-family="Arial" font-size="24px" font-style="normal" font-weight="normal" text-decoration="none" x="600" y="150">UNREGISTERED</text><text fill="#eeeeee" stroke="none" font-family="Arial" font-size="24px" font-style="normal" font-weight="normal" text-decoration="none" x="600" y="180">UNREGISTERED</text><text fill="#eeeeee" stroke="none" font-family="Arial" font-size="24px" font-style="normal" font-weight="normal" text-decoration="none" x="600" y="210">UNREGISTERED</text><text fill="#eeeeee" stroke="none" font-family="Arial" font-size="24px" font-style="normal" font-weight="normal" text-decoration="none" x="600" y="240">UNREGISTERED</text><text fill="#eeeeee" stroke="none" font-family="Arial" font-size="24px" font-style="normal" font-weight="normal" text-decoration="none" x="600" y="270">UNREGISTERED</text><text fill="#eeeeee" stroke="none" font-family="Arial" font-size="24px" font-style="normal" font-weight="normal" text-decoration="none" x="600" y="300">UNREGISTERED</text><text fill="#eeeeee" stroke="none" font-family="Arial" font-size="24px" font-style="normal" font-weight="normal" text-decoration="none" x="600" y="330">UNREGISTERED</text><text fill="#eeeeee" stroke="none" font-family="Arial" font-size="24px" font-style="normal" font-weight="normal" text-decoration="none" x="600" y="360">UNREGISTERED</text><text fill="#eeeeee" stroke="none" font-family="Arial" font-size="24px" font-style="normal" font-weight="normal" text-decoration="none" x="600" y="390">UNREGISTERED</text><text fill="#eeeeee" stroke="none" font-family="Arial" font-size="24px" font-style="normal" font-weight="normal" text-decoration="none" x="600" y="420">UNREGISTERED</text><text fill="#eeeeee" stroke="none" font-family="Arial" font-size="24px" font-style="normal" font-weight="normal" text-decoration="none" x="600" y="450">UNREGISTERED</text><text fill="#eeeeee" stroke="none" font-family="Arial" font-size="24px" font-style="normal" font-weight="normal" text-decoration="none" x="600" y="480">UNREGISTERED</text><g transform="translate(-190,-326) scale(1,1)"><rect fill="#C0C0C0" stroke="none" x="311" y="383" width="123.12451171875" height="44" opacity="0.2"/></g><g transform="translate(-190,-326) scale(1,1)"><rect fill="#ffffff" stroke="none" x="304" y="376" width="123.12451171875" height="44"/></g><g transform="translate(-190,-326) scale(1,1)"><path fill="none" stroke="#000000" d="M 304 376 L 427.12451171875 376 L 427.12451171875 420 L 304 420 L 304 376 Z Z" stroke-miterlimit="10"/></g><g transform="translate(-190,-326) scale(1,1)"><path fill="none" stroke="#000000" d="M 304 401 L 427.12451171875 401" stroke-miterlimit="10"/></g><g transform="translate(-190,-326) scale(1,1)"><path fill="none" stroke="#000000" d="M 304 411 L 427.12451171875 411" stroke-miterlimit="10"/></g><g transform="translate(-190,-326) scale(1,1)"><g><path fill="none" stroke="none"/><text fill="#000000" stroke="none" font-family="Arial" font-size="13px" font-style="normal" font-weight="bold" text-decoration="none" x="313.53369140625" y="395.5">ActiviteConnexion</text></g></g><g transform="translate(-190,-326) scale(1,1)"><rect fill="#C0C0C0" stroke="none" x="207" y="495" width="176" height="44" opacity="0.2"/></g><g transform="translate(-190,-326) scale(1,1)"><rect fill="#ffffff" stroke="none" x="200" y="488" width="176" height="44"/></g><g transform="translate(-190,-326) scale(1,1)"><path fill="none" stroke="#000000" d="M 200 488 L 376 488 L 376 532 L 200 532 L 200 488 Z Z" stroke-miterlimit="10"/></g><g transform="translate(-190,-326) scale(1,1)"><path fill="none" stroke="#000000" d="M 200 513 L 376 513" stroke-miterlimit="10"/></g><g transform="translate(-190,-326) scale(1,1)"><path fill="none" stroke="#000000" d="M 200 523 L 376 523" stroke-miterlimit="10"/></g><g transform="translate(-190,-326) scale(1,1)"><g><path fill="none" stroke="none"/><text fill="#000000" stroke="none" font-family="Arial" font-size="13px" font-style="normal" font-weight="bold" text-decoration="none" x="222.974609375" y="507.5">ActiviteEnregistrement</text></g></g><g transform="translate(-190,-326) scale(1,1)"><rect fill="#C0C0C0" stroke="none" x="679" y="383" width="122.41357421875" height="44" opacity="0.2"/></g><g transform="translate(-190,-326) scale(1,1)"><rect fill="#ffffff" stroke="none" x="672" y="376" width="122.41357421875" height="44"/></g><g transform="translate(-190,-326) scale(1,1)"><path fill="none" stroke="#000000" d="M 672 376 L 794.41357421875 376 L 794.41357421875 420 L 672 420 L 672 376 Z Z" stroke-miterlimit="10"/></g><g transform="translate(-190,-326) scale(1,1)"><path fill="none" stroke="#000000" d="M 672 401 L 794.41357421875 401" stroke-miterlimit="10"/></g><g transform="translate(-190,-326) scale(1,1)"><path fill="none" stroke="#000000" d="M 672 411 L 794.41357421875 411" stroke-miterlimit="10"/></g><g transform="translate(-190,-326) scale(1,1)"><g><path fill="none" stroke="none"/><text fill="#000000" stroke="none" font-family="Arial" font-size="13px" font-style="normal" font-weight="bold" text-decoration="none" x="681.543212890625" y="395.5">ActiviteNavigation</text></g></g><g transform="translate(-190,-326) scale(1,1)"><rect fill="#C0C0C0" stroke="none" x="783" y="495" width="111" height="44" opacity="0.2"/></g><g transform="translate(-190,-326) scale(1,1)"><rect fill="#ffffff" stroke="none" x="776" y="488" width="111" height="44"/></g><g transform="translate(-190,-326) scale(1,1)"><path fill="none" stroke="#000000" d="M 776 488 L 887 488 L 887 532 L 776 532 L 776 488 Z Z" stroke-miterlimit="10"/></g><g transform="translate(-190,-326) scale(1,1)"><path fill="none" stroke="#000000" d="M 776 513 L 887 513" stroke-miterlimit="10"/></g><g transform="translate(-190,-326) scale(1,1)"><path fill="none" stroke="#000000" d="M 776 523 L 887 523" stroke-miterlimit="10"/></g><g transform="translate(-190,-326) scale(1,1)"><g><path fill="none" stroke="none"/><text fill="#000000" stroke="none" font-family="Arial" font-size="13px" font-style="normal" font-weight="bold" text-decoration="none" x="785.2509765625" y="507.5">ActivitePlanning</text></g></g><g transform="translate(-190,-326) scale(1,1)"><rect fill="#C0C0C0" stroke="none" x="495" y="343" width="115.18994140625" height="44" opacity="0.2"/></g><g transform="translate(-190,-326) scale(1,1)"><rect fill="#ffffff" stroke="none" x="488" y="336" width="115.18994140625" height="44"/></g><g transform="translate(-190,-326) scale(1,1)"><path fill="none" stroke="#000000" d="M 488 336 L 603.18994140625 336 L 603.18994140625 380 L 488 380 L 488 336 Z Z" stroke-miterlimit="10"/></g><g transform="translate(-190,-326) scale(1,1)"><path fill="none" stroke="#000000" d="M 488 361 L 603.18994140625 361" stroke-miterlimit="10"/></g><g transform="translate(-190,-326) scale(1,1)"><path fill="none" stroke="#000000" d="M 488 371 L 603.18994140625 371" stroke-miterlimit="10"/></g><g transform="translate(-190,-326) scale(1,1)"><g><path fill="none" stroke="none"/><text fill="#000000" stroke="none" font-family="Arial" font-size="13px" font-style="normal" font-weight="bold" text-decoration="none" x="503.69091796875" y="355.5">ActiviteAccueil</text></g></g><g transform="translate(-190,-326) scale(1,1)"><rect fill="#C0C0C0" stroke="none" x="599" y="671" width="102.20263671875" height="44" opacity="0.2"/></g><g transform="translate(-190,-326) scale(1,1)"><rect fill="#ffffff" stroke="none" x="592" y="664" width="102.20263671875" height="44"/></g><g transform="translate(-190,-326) scale(1,1)"><path fill="none" stroke="#000000" d="M 592 664 L 694.20263671875 664 L 694.20263671875 708 L 592 708 L 592 664 Z Z" stroke-miterlimit="10"/></g><g transform="translate(-190,-326) scale(1,1)"><path fill="none" stroke="#000000" d="M 592 689 L 694.20263671875 689" stroke-miterlimit="10"/></g><g transform="translate(-190,-326) scale(1,1)"><path fill="none" stroke="#000000" d="M 592 699 L 694.20263671875 699" stroke-miterlimit="10"/></g><g transform="translate(-190,-326) scale(1,1)"><g><path fill="none" stroke="none"/><text fill="#000000" stroke="none" font-family="Arial" font-size="13px" font-style="normal" font-weight="bold" text-decoration="none" x="600.841796875" y="683.5">ActiviteFavoris</text></g></g><g transform="translate(-190,-326) scale(1,1)"><rect fill="#C0C0C0" stroke="none" x="727" y="607" width="129.6435546875" height="44" opacity="0.2"/></g><g transform="translate(-190,-326) scale(1,1)"><rect fill="#ffffff" stroke="none" x="720" y="600" width="129.6435546875" height="44"/></g><g transform="translate(-190,-326) scale(1,1)"><path fill="none" stroke="#000000" d="M 720 600 L 849.6435546875 600 L 849.6435546875 644 L 720 644 L 720 600 Z Z" stroke-miterlimit="10"/></g><g transform="translate(-190,-326) scale(1,1)"><path fill="none" stroke="#000000" d="M 720 625 L 849.6435546875 625" stroke-miterlimit="10"/></g><g transform="translate(-190,-326) scale(1,1)"><path fill="none" stroke="#000000" d="M 720 635 L 849.6435546875 635" stroke-miterlimit="10"/></g><g transform="translate(-190,-326) scale(1,1)"><g><path fill="none" stroke="none"/><text fill="#000000" stroke="none" font-family="Arial" font-size="13px" font-style="normal" font-weight="bold" text-decoration="none" x="730.27001953125" y="619.5">ActiviteSatisfaction</text></g></g><g transform="translate(-190,-326) scale(1,1)"><rect fill="#C0C0C0" stroke="none" x="495" y="519" width="129.6181640625" height="44" opacity="0.2"/></g><g transform="translate(-190,-326) scale(1,1)"><rect fill="#ffffff" stroke="none" x="488" y="512" width="129.6181640625" height="44"/></g><g transform="translate(-190,-326) scale(1,1)"><path fill="none" stroke="#000000" d="M 488 512 L 617.6181640625 512 L 617.6181640625 556 L 488 556 L 488 512 Z Z" stroke-miterlimit="10"/></g><g transform="translate(-190,-326) scale(1,1)"><path fill="none" stroke="#000000" d="M 488 537 L 617.6181640625 537" stroke-miterlimit="10"/></g><g transform="translate(-190,-326) scale(1,1)"><path fill="none" stroke="#000000" d="M 488 547 L 617.6181640625 547" stroke-miterlimit="10"/></g><g transform="translate(-190,-326) scale(1,1)"><g><path fill="none" stroke="none"/><text fill="#000000" stroke="none" font-family="Arial" font-size="13px" font-style="italic" font-weight="bold" text-decoration="none" x="499.30908203125" y="531.5">AppCompatActivity</text></g></g><g transform="translate(-190,-326) scale(1,1)"><path fill="none" stroke="#000000" d="M 629 663 L 566 557" stroke-miterlimit="10"/></g><g transform="translate(-190,-326) scale(1,1)"><path fill="#FFFFFF" stroke="none" d="M 583.6217682340501 570.1709257193799 L 566 557 L 569.1472209241167 578.7737227054723"/></g><g transform="translate(-190,-326) scale(1,1)"><path fill="none" stroke="#000000" d="M 583.6217682340501 570.1709257193799 L 566 557 L 569.1472209241167 578.7737227054723 L 583.6217682340501 570.1709257193799" stroke-miterlimit="10"/></g><g transform="translate(-190,-326) scale(1,1)"><path fill="none" stroke="#000000" d="M 546 381 L 551 511" stroke-miterlimit="10"/></g><g transform="translate(-190,-326) scale(1,1)"><path fill="#FFFFFF" stroke="none" d="M 541.8060180376284 491.013236988557 L 551 511 L 558.63164866766 490.3660973489404"/></g><g transform="translate(-190,-326) scale(1,1)"><path fill="none" stroke="#000000" d="M 541.8060180376284 491.013236988557 L 551 511 L 558.63164866766 490.3660973489404 L 541.8060180376284 491.013236988557" stroke-miterlimit="10"/></g><g transform="translate(-190,-326) scale(1,1)"><path fill="none" stroke="#000000" d="M 702 421 L 583 511" stroke-miterlimit="10"/></g><g transform="translate(-190,-326) scale(1,1)"><path fill="#FFFFFF" stroke="none" d="M 594.1326406788621 492.02463935743657 L 583 511 L 604.2895719023535 505.45435953071967"/></g><g transform="translate(-190,-326) scale(1,1)"><path fill="none" stroke="#000000" d="M 594.1326406788621 492.02463935743657 L 583 511 L 604.2895719023535 505.45435953071967 L 594.1326406788621 492.02463935743657" stroke-miterlimit="10"/></g><g transform="translate(-190,-326) scale(1,1)"><path fill="none" stroke="#000000" d="M 775 515 L 619 528" stroke-miterlimit="10"/></g><g transform="translate(-190,-326) scale(1,1)"><path fill="#FFFFFF" stroke="none" d="M 638.5559781995721 517.9221174516737 L 619 528 L 639.9543038875769 534.7020257077306"/></g><g transform="translate(-190,-326) scale(1,1)"><path fill="none" stroke="#000000" d="M 638.5559781995721 517.9221174516737 L 619 528 L 639.9543038875769 534.7020257077306 L 638.5559781995721 517.9221174516737" stroke-miterlimit="10"/></g><g transform="translate(-190,-326) scale(1,1)"><rect fill="#C0C0C0" stroke="none" x="519" y="767" width="79.7890625" height="44" opacity="0.2"/></g><g transform="translate(-190,-326) scale(1,1)"><rect fill="#ffffff" stroke="none" x="512" y="760" width="79.7890625" height="44"/></g><g transform="translate(-190,-326) scale(1,1)"><path fill="none" stroke="#000000" d="M 512 760 L 591.7890625 760 L 591.7890625 804 L 512 804 L 512 760 Z Z" stroke-miterlimit="10"/></g><g transform="translate(-190,-326) scale(1,1)"><path fill="none" stroke="#000000" d="M 512 785 L 591.7890625 785" stroke-miterlimit="10"/></g><g transform="translate(-190,-326) scale(1,1)"><path fill="none" stroke="#000000" d="M 512 795 L 591.7890625 795" stroke-miterlimit="10"/></g><g transform="translate(-190,-326) scale(1,1)"><g><path fill="none" stroke="none"/><text fill="#000000" stroke="none" font-family="Arial" font-size="13px" font-style="normal" font-weight="bold" text-decoration="none" x="519.013671875" y="779.5">Constantes</text></g></g><g transform="translate(-190,-326) scale(1,1)"><path fill="none" stroke="#000000" d="M 377 518 L 487 528" stroke-miterlimit="10"/></g><g transform="translate(-190,-326) scale(1,1)"><path fill="#FFFFFF" stroke="none" d="M 465.99589863846364 534.5442895713979 L 487 528 L 467.5203459605442 517.7753690285119"/></g><g transform="translate(-190,-326) scale(1,1)"><path fill="none" stroke="#000000" d="M 465.99589863846364 534.5442895713979 L 487 528 L 467.5203459605442 517.7753690285119 L 465.99589863846364 534.5442895713979" stroke-miterlimit="10"/></g><g transform="translate(-190,-326) scale(1,1)"><path fill="none" stroke="#000000" d="M 397 421 L 520 511" stroke-miterlimit="10"/></g><g transform="translate(-190,-326) scale(1,1)"><path fill="#FFFFFF" stroke="none" d="M 498.62530178725115 505.79209482479655 L 520 511 L 508.5683510131122 492.2032608827864"/></g><g transform="translate(-190,-326) scale(1,1)"><path fill="none" stroke="#000000" d="M 498.62530178725115 505.79209482479655 L 520 511 L 508.5683510131122 492.2032608827864 L 498.62530178725115 505.79209482479655" stroke-miterlimit="10"/></g><g transform="translate(-190,-326) scale(1,1)"><path fill="none" stroke="#000000" d="M 723 599 L 613 557" stroke-miterlimit="10"/></g><g transform="translate(-190,-326) scale(1,1)"><path fill="#FFFFFF" stroke="none" d="M 634.9913985577649 556.3848662962122 L 613 557 L 628.9852322612564 572.1153018346869"/></g><g transform="translate(-190,-326) scale(1,1)"><path fill="none" stroke="#000000" d="M 634.9913985577649 556.3848662962122 L 613 557 L 628.9852322612564 572.1153018346869 L 634.9913985577649 556.3848662962122" stroke-miterlimit="10"/></g><g transform="translate(-190,-326) scale(1,1)"><rect fill="#C0C0C0" stroke="none" x="263" y="583" width="143" height="44" opacity="0.2"/></g><g transform="translate(-190,-326) scale(1,1)"><rect fill="#ffffff" stroke="none" x="256" y="576" width="143" height="44"/></g><g transform="translate(-190,-326) scale(1,1)"><path fill="none" stroke="#000000" d="M 256 576 L 399 576 L 399 620 L 256 620 L 256 576 Z Z" stroke-miterlimit="10"/></g><g transform="translate(-190,-326) scale(1,1)"><path fill="none" stroke="#000000" d="M 256 601 L 399 601" stroke-miterlimit="10"/></g><g transform="translate(-190,-326) scale(1,1)"><path fill="none" stroke="#000000" d="M 256 611 L 399 611" stroke-miterlimit="10"/></g><g transform="translate(-190,-326) scale(1,1)"><g><path fill="none" stroke="none"/><text fill="#000000" stroke="none" font-family="Arial" font-size="13px" font-style="normal" font-weight="bold" text-decoration="none" x="279.08642578125" y="595.5">ActiviteReglages</text></g></g><g transform="translate(-190,-326) scale(1,1)"><path fill="none" stroke="#000000" d="M 400 577 L 487 552" stroke-miterlimit="10"/></g><g transform="translate(-190,-326) scale(1,1)"><path fill="#FFFFFF" stroke="none" d="M 469.79035331739095 565.7050377985529 L 487 552 L 465.14001696512787 549.5218672926773"/></g><g transform="translate(-190,-326) scale(1,1)"><path fill="none" stroke="#000000" d="M 469.79035331739095 565.7050377985529 L 487 552 L 465.14001696512787 549.5218672926773 L 469.79035331739095 565.7050377985529" stroke-miterlimit="10"/></g><g transform="translate(-190,-326) scale(1,1)"><rect fill="#C0C0C0" stroke="none" x="375" y="663" width="167" height="44" opacity="0.2"/></g><g transform="translate(-190,-326) scale(1,1)"><rect fill="#ffffff" stroke="none" x="368" y="656" width="167" height="44"/></g><g transform="translate(-190,-326) scale(1,1)"><path fill="none" stroke="#000000" d="M 368 656 L 535 656 L 535 700 L 368 700 L 368 656 Z Z" stroke-miterlimit="10"/></g><g transform="translate(-190,-326) scale(1,1)"><path fill="none" stroke="#000000" d="M 368 681 L 535 681" stroke-miterlimit="10"/></g><g transform="translate(-190,-326) scale(1,1)"><path fill="none" stroke="#000000" d="M 368 691 L 535 691" stroke-miterlimit="10"/></g><g transform="translate(-190,-326) scale(1,1)"><g><path fill="none" stroke="none"/><text fill="#000000" stroke="none" font-family="Arial" font-size="13px" font-style="normal" font-weight="bold" text-decoration="none" x="394.78369140625" y="675.5">ActiviteInformations</text></g></g><g transform="translate(-190,-326) scale(1,1)"><path fill="none" stroke="#000000" d="M 467 655 L 536 557" stroke-miterlimit="10"/></g><g transform="translate(-190,-326) scale(1,1)"><path fill="#FFFFFF" stroke="none" d="M 531.182611555037 578.4660841461674 L 536 557 L 517.414778297681 568.772405628233"/></g><g transform="translate(-190,-326) scale(1,1)"><path fill="none" stroke="#000000" d="M 531.182611555037 578.4660841461674 L 536 557 L 517.414778297681 568.772405628233 L 531.182611555037 578.4660841461674" stroke-miterlimit="10"/></g></g></svg>