<svg version="1.1" xmlns="http://www.w3.org/2000/svg" xmlns:xlink="http://www.w3.org/1999/xlink" width="763" height="584"><defs/><g><text fill="#eeeeee" stroke="none" font-family="Arial" font-size="24px" font-style="normal" font-weight="normal" text-decoration="none" x="0" y="0">UNREGISTERED</text><text fill="#eeeeee" stroke="none" font-family="Arial" font-size="24px" font-style="normal" font-weight="normal" text-decoration="none" x="0" y="30">UNREGISTERED</text><text fill="#eeeeee" stroke="none" font-family="Arial" font-size="24px" font-style="normal" font-weight="normal" text-decoration="none" x="0" y="60">UNREGISTERED</text><text fill="#eeeeee" stroke="none" font-family="Arial" font-size="24px" font-style="normal" font-weight="normal" text-decoration="none" x="0" y="90">UNREGISTERED</text><text fill="#eeeeee" stroke="none" font-family="Arial" font-size="24px" font-style="normal" font-weight="normal" text-decoration="none" x="0" y="120">UNREGISTERED</text><text fill="#eeeeee" stroke="none" font-family="Arial" font-size="24px" font-style="normal" font-weight="normal" text-decoration="none" x="0" y="150">UNREGISTERED</text><text fill="#eeeeee" stroke="none" font-family="Arial" font-size="24px" font-style="normal" font-weight="normal" text-decoration="none" x="0" y="180">UNREGISTERED</text><text fill="#eeeeee" stroke="none" font-family="Arial" font-size="24px" font-style="normal" font-weight="normal" text-decoration="none" x="0" y="210">UNREGISTERED</text><text fill="#eeeeee" stroke="none" font-family="Arial" font-size="24px" font-style="normal" font-weight="normal" text-decoration="none" x="0" y="240">UNREGISTERED</text><text fill="#eeeeee" stroke="none" font-family="Arial" font-size="24px" font-style="normal" font-weight="normal" text-decoration="none" x="0" y="270">UNREGISTERED</text><text fill="#eeeeee" stroke="none" font-family="Arial" font-size="24px" font-style="normal" font-weight="normal" text-decoration="none" x="0" y="300">UNREGISTERED</text><text fill="#eeeeee" stroke="none" font-family="Arial" font-size="24px" font-style="normal" font-weight="normal" text-decoration="none" x="0" y="330">UNREGISTERED</text><text fill="#eeeeee" stroke="none" font-family="Arial" font-size="24px" font-style="normal" font-weight="normal" text-decoration="none" x="0" y="360">UNREGISTERED</text><text fill="#eeeeee" stroke="none" font-family="Arial" font-size="24px" font-style="normal" font-weight="normal" text-decoration="none" x="0" y="390">UNREGISTERED</text><text fill="#eeeeee" stroke="none" font-family="Arial" font-size="24px" font-style="normal" font-weight="normal" text-decoration="none" x="0" y="420">UNREGISTERED</text><text fill="#eeeeee" stroke="none" font-family="Arial" font-size="24px" font-style="normal" font-weight="normal" text-decoration="none" x="0" y="450">UNREGISTERED</text><text fill="#eeeeee" stroke="none" font-family="Arial" font-size="24px" font-style="normal" font-weight="normal" text-decoration="none" x="0" y="480">UNREGISTERED</text><text fill="#eeeeee" stroke="none" font-family="Arial" font-size="24px" font-style="normal" font-weight="normal" text-decoration="none" x="0" y="510">UNREGISTERED</text><text fill="#eeeeee" stroke="none" font-family="Arial" font-size="24px" font-style="normal" font-weight="normal" text-decoration="none" x="0" y="540">UNREGISTERED</text><text fill="#eeeeee" stroke="none" font-family="Arial" font-size="24px" font-style="normal" font-weight="normal" text-decoration="none" x="0" y="570">UNREGISTERED</text><text fill="#eeeeee" stroke="none" font-family="Arial" font-size="24px" font-style="normal" font-weight="normal" text-decoration="none" x="200" y="0">UNREGISTERED</text><text fill="#eeeeee" stroke="none" font-family="Arial" font-size="24px" font-style="normal" font-weight="normal" text-decoration="none" x="200" y="30">UNREGISTERED</text><text fill="#eeeeee" stroke="none" font-family="Arial" font-size="24px" font-style="normal" font-weight="normal" text-decoration="none" x="200" y="60">UNREGISTERED</text><text fill="#eeeeee" stroke="none" font-family="Arial" font-size="24px" font-style="normal" font-weight="normal" text-decoration="none" x="200" y="90">UNREGISTERED</text><text fill="#eeeeee" stroke="none" font-family="Arial" font-size="24px" font-style="normal" font-weight="normal" text-decoration="none" x="200" y="120">UNREGISTERED</text><text fill="#eeeeee" stroke="none" font-family="Arial" font-size="24px" font-style="normal" font-weight="normal" text-decoration="none" x="200" y="150">UNREGISTERED</text><text fill="#eeeeee" stroke="none" font-family="Arial" font-size="24px" font-style="normal" font-weight="normal" text-decoration="none" x="200" y="180">UNREGISTERED</text><text fill="#eeeeee" stroke="none" font-family="Arial" font-size="24px" font-style="normal" font-weight="normal" text-decoration="none" x="200" y="210">UNREGISTERED</text><text fill="#eeeeee" stroke="none" font-family="Arial" font-size="24px" font-style="normal" font-weight="normal" text-decoration="none" x="200" y="240">UNREGISTERED</text><text fill="#eeeeee" stroke="none" font-family="Arial" font-size="24px" font-style="normal" font-weight="normal" text-decoration="none" x="200" y="270">UNREGISTERED</text><text fill="#eeeeee" stroke="none" font-family="Arial" font-size="24px" font-style="normal" font-weight="normal" text-decoration="none" x="200" y="300">UNREGISTERED</text><text fill="#eeeeee" stroke="none" font-family="Arial" font-size="24px" font-style="normal" font-weight="normal" text-decoration="none" x="200" y="330">UNREGISTERED</text><text fill="#eeeeee" stroke="none" font-family="Arial" font-size="24px" font-style="normal" font-weight="normal" text-decoration="none" x="200" y="360">UNREGISTERED</text><text fill="#eeeeee" stroke="none" font-family="Arial" font-size="24px" font-style="normal" font-weight="normal" text-decoration="none" x="200" y="390">UNREGISTERED</text><text fill="#eeeeee" stroke="none" font-family="Arial" font-size="24px" font-style="normal" font-weight="normal" text-decoration="none" x="200" y="420">UNREGISTERED</text><text fill="#eeeeee" stroke="none" font-family="Arial" font-size="24px" font-style="normal" font-weight="normal" text-decoration="none" x="200" y="450">UNREGISTERED</text><text fill="#eeeeee" stroke="none" font-family="Arial" font-size="24px" font-style="normal" font-weight="normal" text-decoration="none" x="200" y="480">UNREGISTERED</text><text fill="#eeeeee" stroke="none" font-family="Arial" font-size="24px" font-style="normal" font-weight="normal" text-decoration="none" x="200" y="510">UNREGISTERED</text><text fill="#eeeeee" stroke="none" font-family="Arial" font-size="24px" font-style="normal" font-weight="normal" text-decoration="none" x="200" y="540">UNREGISTERED</text><text fill="#eeeeee" stroke="none" font-family="Arial" font-size="24px" font-style="normal" font-weight="normal" text-decoration="none" x="200" y="570">UNREGISTERED</text><text fill="#eeeeee" stroke="none" font-family="Arial" font-size="24px" font-style="normal" font-weight="normal" text-decoration="none" x="400" y="0">UNREGISTERED</text><text fill="#eeeeee" stroke="none" font-family="Arial" font-size="24px" font-style="normal" font-weight="normal" text-decoration="none" x="400" y="30">UNREGISTERED</text><text fill="#eeeeee" stroke="none" font-family="Arial" font-size="24px" font-style="normal" font-weight="normal" text-decoration="none" x="400" y="60">UNREGISTERED</text><text fill="#eeeeee" stroke="none" font-family="Arial" font-size="24px" font-style="normal" font-weight="normal" text-decoration="none" x="400" y="90">UNREGISTERED</text><text fill="#eeeeee" stroke="none" font-family="Arial" font-size="24px" font-style="normal" font-weight="normal" text-decoration="none" x="400" y="120">UNREGISTERED</text><text fill="#eeeeee" stroke="none" font-family="Arial" font-size="24px" font-style="normal" font-weight="normal" text-decoration="none" x="400" y="150">UNREGISTERED</text><text fill="#eeeeee" stroke="none" font-family="Arial" font-size="24px" font-style="normal" font-weight="normal" text-decoration="none" x="400" y="180">UNREGISTERED</text><text fill="#eeeeee" stroke="none" font-family="Arial" font-size="24px" font-style="normal" font-weight="normal" text-decoration="none" x="400" y="210">UNREGISTERED</text><text fill="#eeeeee" stroke="none" font-family="Arial" font-size="24px" font-style="normal" font-weight="normal" text-decoration="none" x="400" y="240">UNREGISTERED</text><text fill="#eeeeee" stroke="none" font-family="Arial" font-size="24px" font-style="normal" font-weight="normal" text-decoration="none" x="400" y="270">UNREGISTERED</text><text fill="#eeeeee" stroke="none" font-family="Arial" font-size="24px" font-style="normal" font-weight="normal" text-decoration="none" x="400" y="300">UNREGISTERED</text><text fill="#eeeeee" stroke="none" font-family="Arial" font-size="24px" font-style="normal" font-weight="normal" text-decoration="none" x="400" y="330">UNREGISTERED</text><text fill="#eeeeee" stroke="none" font-family="Arial" font-size="24px" font-style="normal" font-weight="normal" text-decoration="none" x="400" y="360">UNREGISTERED</text><text fill="#eeeeee" stroke="none" font-family="Arial" font-size="24px" font-style="normal" font-weight="normal" text-decoration="none" x="400" y="390">UNREGISTERED</text><text fill="#eeeeee" stroke="none" font-family="Arial" font-size="24px" font-style="normal" font-weight="normal" text-decoration="none" x="400" y="420">UNREGISTERED</text><text fill="#eeeeee" stroke="none" font-family="Arial" font-size="24px" font-style="normal" font-weight="normal" text-decoration="none" x="400" y="450">UNREGISTERED</text><text fill="#eeeeee" stroke="none" font-family="Arial" font-size="24px" font-style="normal" font-weight="normal" text-decoration="none" x="400" y="480">UNREGISTERED</text><text fill="#eeeeee" stroke="none" font-family="Arial" font-size="24px" font-style="normal" font-weight="normal" text-decoration="none" x="400" y="510">UNREGISTERED</text><text fill="#eeeeee" stroke="none" font-family="Arial" font-size="24px" font-style="normal" font-weight="normal" text-decoration="none" x="400" y="540">UNREGISTERED</text><text fill="#eeeeee" stroke="none" font-family="Arial" font-size="24px" font-style="normal" font-weight="normal" text-decoration="none" x="400" y="570">UNREGISTERED</text><text fill="#eeeeee" stroke="none" font-family="Arial" font-size="24px" font-style="normal" font-weight="normal" text-decoration="none" x="600" y="0">UNREGISTERED</text><text fill="#eeeeee" stroke="none" font-family="Arial" font-size="24px" font-style="normal" font-weight="normal" text-decoration="none" x="600" y="30">UNREGISTERED</text><text fill="#eeeeee" stroke="none" font-family="Arial" font-size="24px" font-style="normal" font-weight="normal" text-decoration="none" x="600" y="60">UNREGISTERED</text><text fill="#eeeeee" stroke="none" font-family="Arial" font-size="24px" font-style="normal" font-weight="normal" text-decoration="none" x="600" y="90">UNREGISTERED</text><text fill="#eeeeee" stroke="none" font-family="Arial" font-size="24px" font-style="normal" font-weight="normal" text-decoration="none" x="600" y="120">UNREGISTERED</text><text fill="#eeeeee" stroke="none" font-family="Arial" font-size="24px" font-style="normal" font-weight="normal" text-decoration="none" x="600" y="150">UNREGISTERED</text><text fill="#eeeeee" stroke="none" font-family="Arial" font-size="24px" font-style="normal" font-weight="normal" text-decoration="none" x="600" y="180">UNREGISTERED</text><text fill="#eeeeee" stroke="none" font-family="Arial" font-size="24px" font-style="normal" font-weight="normal" text-decoration="none" x="600" y="210">UNREGISTERED</text><text fill="#eeeeee" stroke="none" font-family="Arial" font-size="24px" font-style="normal" font-weight="normal" text-decoration="none" x="600" y="240">UNREGISTERED</text><text fill="#eeeeee" stroke="none" font-family="Arial" font-size="24px" font-style="normal" font-weight="normal" text-decoration="none" x="600" y="270">UNREGISTERED</text><text fill="#eeeeee" stroke="none" font-family="Arial" font-size="24px" font-style="normal" font-weight="normal" text-decoration="none" x="600" y="300">UNREGISTERED</text><text fill="#eeeeee" stroke="none" font-family="Arial" font-size="24px" font-style="normal" font-weight="normal" text-decoration="none" x="600" y="330">UNREGISTERED</text><text fill="#eeeeee" stroke="none" font-family="Arial" font-size="24px" font-style="normal" font-weight="normal" text-decoration="none" x="600" y="360">UNREGISTERED</text><text fill="#eeeeee" stroke="none" font-family="Arial" font-size="24px" font-style="normal" font-weight="normal" text-decoration="none" x="600" y="390">UNREGISTERED</text><text fill="#eeeeee" stroke="none" font-family="Arial" font-size="24px" font-style="normal" font-weight="normal" text-decoration="none" x="600" y="420">UNREGISTERED</text><text fill="#eeeeee" stroke="none" font-family="Arial" font-size="24px" font-style="normal" font-weight="normal" text-decoration="none" x="600" y="450">UNREGISTERED</text><text fill="#eeeeee" stroke="none" font-family="Arial" font-size="24px" font-style="normal" font-weight="normal" text-decoration="none" x="600" y="480">UNREGISTERED</text><text fill="#eeeeee" stroke="none" font-family="Arial" font-size="24px" font-style="normal" font-weight="normal" text-decoration="none" x="600" y="510">UNREGISTERED</text><text fill="#eeeeee" stroke="none" font-family="Arial" font-size="24px" font-style="normal" font-weight="normal" text-decoration="none" x="600" y="540">UNREGISTERED</text><text fill="#eeeeee" stroke="none" font-family="Arial" font-size="24px" font-style="normal" font-weight="normal" text-decoration="none" x="600" y="570">UNREGISTERED</text><g transform="translate(-142,-334) scale(1,1)"><rect fill="#C0C0C0" stroke="none" x="247" y="431" width="123.12451171875" height="44" opacity="0.2"/></g><g transform="translate(-142,-334) scale(1,1)"><rect fill="#ffffff" stroke="none" x="240" y="424" width="123.12451171875" height="44"/></g><g transform="translate(-142,-334) scale(1,1)"><path fill="none" stroke="#000000" d="M 240 424 L 363.12451171875 424 L 363.12451171875 468 L 240 468 L 240 424 Z Z" stroke-miterlimit="10"/></g><g transform="translate(-142,-334) scale(1,1)"><path fill="none" stroke="#000000" d="M 240 449 L 363.12451171875 449" stroke-miterlimit="10"/></g><g transform="translate(-142,-334) scale(1,1)"><path fill="none" stroke="#000000" d="M 240 459 L 363.12451171875 459" stroke-miterlimit="10"/></g><g transform="translate(-142,-334) scale(1,1)"><g><path fill="none" stroke="none"/><text fill="#000000" stroke="none" font-family="Arial" font-size="13px" font-style="normal" font-weight="bold" text-decoration="none" x="249.53369140625" y="443.5">ActiviteConnexion</text></g></g><g transform="translate(-142,-334) scale(1,1)"><rect fill="#C0C0C0" stroke="none" x="159" y="551" width="211" height="44" opacity="0.2"/></g><g transform="translate(-142,-334) scale(1,1)"><rect fill="#ffffff" stroke="none" x="152" y="544" width="211" height="44"/></g><g transform="translate(-142,-334) scale(1,1)"><path fill="none" stroke="#000000" d="M 152 544 L 363 544 L 363 588 L 152 588 L 152 544 Z Z" stroke-miterlimit="10"/></g><g transform="translate(-142,-334) scale(1,1)"><path fill="none" stroke="#000000" d="M 152 569 L 363 569" stroke-miterlimit="10"/></g><g transform="translate(-142,-334) scale(1,1)"><path fill="none" stroke="#000000" d="M 152 579 L 363 579" stroke-miterlimit="10"/></g><g transform="translate(-142,-334) scale(1,1)"><g><path fill="none" stroke="none"/><text fill="#000000" stroke="none" font-family="Arial" font-size="13px" font-style="normal" font-weight="bold" text-decoration="none" x="192.474609375" y="563.5">ActiviteEnregistrement</text></g></g><g transform="translate(-142,-334) scale(1,1)"><rect fill="#C0C0C0" stroke="none" x="711" y="415" width="122.41357421875" height="44" opacity="0.2"/></g><g transform="translate(-142,-334) scale(1,1)"><rect fill="#ffffff" stroke="none" x="704" y="408" width="122.41357421875" height="44"/></g><g transform="translate(-142,-334) scale(1,1)"><path fill="none" stroke="#000000" d="M 704 408 L 826.41357421875 408 L 826.41357421875 452 L 704 452 L 704 408 Z Z" stroke-miterlimit="10"/></g><g transform="translate(-142,-334) scale(1,1)"><path fill="none" stroke="#000000" d="M 704 433 L 826.41357421875 433" stroke-miterlimit="10"/></g><g transform="translate(-142,-334) scale(1,1)"><path fill="none" stroke="#000000" d="M 704 443 L 826.41357421875 443" stroke-miterlimit="10"/></g><g transform="translate(-142,-334) scale(1,1)"><g><path fill="none" stroke="none"/><text fill="#000000" stroke="none" font-family="Arial" font-size="13px" font-style="normal" font-weight="bold" text-decoration="none" x="713.543212890625" y="427.5">ActiviteNavigation</text></g></g><g transform="translate(-142,-334) scale(1,1)"><rect fill="#C0C0C0" stroke="none" x="791" y="567" width="111" height="44" opacity="0.2"/></g><g transform="translate(-142,-334) scale(1,1)"><rect fill="#ffffff" stroke="none" x="784" y="560" width="111" height="44"/></g><g transform="translate(-142,-334) scale(1,1)"><path fill="none" stroke="#000000" d="M 784 560 L 895 560 L 895 604 L 784 604 L 784 560 Z Z" stroke-miterlimit="10"/></g><g transform="translate(-142,-334) scale(1,1)"><path fill="none" stroke="#000000" d="M 784 585 L 895 585" stroke-miterlimit="10"/></g><g transform="translate(-142,-334) scale(1,1)"><path fill="none" stroke="#000000" d="M 784 595 L 895 595" stroke-miterlimit="10"/></g><g transform="translate(-142,-334) scale(1,1)"><g><path fill="none" stroke="none"/><text fill="#000000" stroke="none" font-family="Arial" font-size="13px" font-style="normal" font-weight="bold" text-decoration="none" x="793.2509765625" y="579.5">ActivitePlanning</text></g></g><g transform="translate(-142,-334) scale(1,1)"><rect fill="#C0C0C0" stroke="none" x="447" y="351" width="115.18994140625" height="44" opacity="0.2"/></g><g transform="translate(-142,-334) scale(1,1)"><rect fill="#ffffff" stroke="none" x="440" y="344" width="115.18994140625" height="44"/></g><g transform="translate(-142,-334) scale(1,1)"><path fill="none" stroke="#000000" d="M 440 344 L 555.18994140625 344 L 555.18994140625 388 L 440 388 L 440 344 Z Z" stroke-miterlimit="10"/></g><g transform="translate(-142,-334) scale(1,1)"><path fill="none" stroke="#000000" d="M 440 369 L 555.18994140625 369" stroke-miterlimit="10"/></g><g transform="translate(-142,-334) scale(1,1)"><path fill="none" stroke="#000000" d="M 440 379 L 555.18994140625 379" stroke-miterlimit="10"/></g><g transform="translate(-142,-334) scale(1,1)"><g><path fill="none" stroke="none"/><text fill="#000000" stroke="none" font-family="Arial" font-size="13px" font-style="normal" font-weight="bold" text-decoration="none" x="455.69091796875" y="363.5">ActiviteAccueil</text></g></g><g transform="translate(-142,-334) scale(1,1)"><rect fill="#C0C0C0" stroke="none" x="359" y="655" width="102.20263671875" height="44" opacity="0.2"/></g><g transform="translate(-142,-334) scale(1,1)"><rect fill="#ffffff" stroke="none" x="352" y="648" width="102.20263671875" height="44"/></g><g transform="translate(-142,-334) scale(1,1)"><path fill="none" stroke="#000000" d="M 352 648 L 454.20263671875 648 L 454.20263671875 692 L 352 692 L 352 648 Z Z" stroke-miterlimit="10"/></g><g transform="translate(-142,-334) scale(1,1)"><path fill="none" stroke="#000000" d="M 352 673 L 454.20263671875 673" stroke-miterlimit="10"/></g><g transform="translate(-142,-334) scale(1,1)"><path fill="none" stroke="#000000" d="M 352 683 L 454.20263671875 683" stroke-miterlimit="10"/></g><g transform="translate(-142,-334) scale(1,1)"><g><path fill="none" stroke="none"/><text fill="#000000" stroke="none" font-family="Arial" font-size="13px" font-style="normal" font-weight="bold" text-decoration="none" x="360.841796875" y="667.5">ActiviteFavoris</text></g></g><g transform="translate(-142,-334) scale(1,1)"><rect fill="#C0C0C0" stroke="none" x="615" y="679" width="129.6435546875" height="44" opacity="0.2"/></g><g transform="translate(-142,-334) scale(1,1)"><rect fill="#ffffff" stroke="none" x="608" y="672" width="129.6435546875" height="44"/></g><g transform="translate(-142,-334) scale(1,1)"><path fill="none" stroke="#000000" d="M 608 672 L 737.6435546875 672 L 737.6435546875 716 L 608 716 L 608 672 Z Z" stroke-miterlimit="10"/></g><g transform="translate(-142,-334) scale(1,1)"><path fill="none" stroke="#000000" d="M 608 697 L 737.6435546875 697" stroke-miterlimit="10"/></g><g transform="translate(-142,-334) scale(1,1)"><path fill="none" stroke="#000000" d="M 608 707 L 737.6435546875 707" stroke-miterlimit="10"/></g><g transform="translate(-142,-334) scale(1,1)"><g><path fill="none" stroke="none"/><text fill="#000000" stroke="none" font-family="Arial" font-size="13px" font-style="normal" font-weight="bold" text-decoration="none" x="618.27001953125" y="691.5">ActiviteSatisfaction</text></g></g><g transform="translate(-142,-334) scale(1,1)"><rect fill="#C0C0C0" stroke="none" x="495" y="519" width="129.6181640625" height="44" opacity="0.2"/></g><g transform="translate(-142,-334) scale(1,1)"><rect fill="#ffffff" stroke="none" x="488" y="512" width="129.6181640625" height="44"/></g><g transform="translate(-142,-334) scale(1,1)"><path fill="none" stroke="#000000" d="M 488 512 L 617.6181640625 512 L 617.6181640625 556 L 488 556 L 488 512 Z Z" stroke-miterlimit="10"/></g><g transform="translate(-142,-334) scale(1,1)"><path fill="none" stroke="#000000" d="M 488 537 L 617.6181640625 537" stroke-miterlimit="10"/></g><g transform="translate(-142,-334) scale(1,1)"><path fill="none" stroke="#000000" d="M 488 547 L 617.6181640625 547" stroke-miterlimit="10"/></g><g transform="translate(-142,-334) scale(1,1)"><g><path fill="none" stroke="none"/><text fill="#000000" stroke="none" font-family="Arial" font-size="13px" font-style="italic" font-weight="bold" text-decoration="none" x="499.30908203125" y="531.5">AppCompatActivity</text></g></g><g transform="translate(-142,-334) scale(1,1)"><path fill="none" stroke="#000000" d="M 428 647 L 527 557" stroke-miterlimit="10"/></g><g transform="translate(-142,-334) scale(1,1)"><path fill="#FFFFFF" stroke="none" d="M 517.6237153805337 576.9018915366042 L 527 557 L 506.29720309926824 564.4427280272123"/></g><g transform="translate(-142,-334) scale(1,1)"><path fill="none" stroke="#000000" d="M 517.6237153805337 576.9018915366042 L 527 557 L 506.29720309926824 564.4427280272123 L 517.6237153805337 576.9018915366042" stroke-miterlimit="10"/></g><g transform="translate(-142,-334) scale(1,1)"><path fill="none" stroke="#000000" d="M 505 389 L 544 511" stroke-miterlimit="10"/></g><g transform="translate(-142,-334) scale(1,1)"><path fill="#FFFFFF" stroke="none" d="M 529.7918294484075 494.2033369511424 L 544 511 L 545.8303405978667 489.0762719115612"/></g><g transform="translate(-142,-334) scale(1,1)"><path fill="none" stroke="#000000" d="M 529.7918294484075 494.2033369511424 L 544 511 L 545.8303405978667 489.0762719115612 L 529.7918294484075 494.2033369511424" stroke-miterlimit="10"/></g><g transform="translate(-142,-334) scale(1,1)"><path fill="none" stroke="#000000" d="M 718 453 L 599 511" stroke-miterlimit="10"/></g><g transform="translate(-142,-334) scale(1,1)"><path fill="#FFFFFF" stroke="none" d="M 613.5821351979507 494.5269513122589 L 599 511 L 620.9593311165678 509.66292224873206"/></g><g transform="translate(-142,-334) scale(1,1)"><path fill="none" stroke="#000000" d="M 613.5821351979507 494.5269513122589 L 599 511 L 620.9593311165678 509.66292224873206 L 613.5821351979507 494.5269513122589" stroke-miterlimit="10"/></g><g transform="translate(-142,-334) scale(1,1)"><path fill="none" stroke="#000000" d="M 783 573 L 619 545" stroke-miterlimit="10"/></g><g transform="translate(-142,-334) scale(1,1)"><path fill="#FFFFFF" stroke="none" d="M 640.4523314731952 540.1217344922441 L 619 545 L 637.6185436779206 556.7196344359952"/></g><g transform="translate(-142,-334) scale(1,1)"><path fill="none" stroke="#000000" d="M 640.4523314731952 540.1217344922441 L 619 545 L 637.6185436779206 556.7196344359952 L 640.4523314731952 540.1217344922441" stroke-miterlimit="10"/></g><g transform="translate(-142,-334) scale(1,1)"><rect fill="#C0C0C0" stroke="none" x="471" y="871" width="79.7890625" height="44" opacity="0.2"/></g><g transform="translate(-142,-334) scale(1,1)"><rect fill="#ffffff" stroke="none" x="464" y="864" width="79.7890625" height="44"/></g><g transform="translate(-142,-334) scale(1,1)"><path fill="none" stroke="#000000" d="M 464 864 L 543.7890625 864 L 543.7890625 908 L 464 908 L 464 864 Z Z" stroke-miterlimit="10"/></g><g transform="translate(-142,-334) scale(1,1)"><path fill="none" stroke="#000000" d="M 464 889 L 543.7890625 889" stroke-miterlimit="10"/></g><g transform="translate(-142,-334) scale(1,1)"><path fill="none" stroke="#000000" d="M 464 899 L 543.7890625 899" stroke-miterlimit="10"/></g><g transform="translate(-142,-334) scale(1,1)"><g><path fill="none" stroke="none"/><text fill="#000000" stroke="none" font-family="Arial" font-size="13px" font-style="normal" font-weight="bold" text-decoration="none" x="471.013671875" y="883.5">Constantes</text></g></g><g transform="translate(-142,-334) scale(1,1)"><path fill="none" stroke="#000000" d="M 364 554 L 487 541" stroke-miterlimit="10"/></g><g transform="translate(-142,-334) scale(1,1)"><path fill="#FFFFFF" stroke="none" d="M 467.6721192537779 551.5087119029793 L 487 541 L 465.90234301024907 534.7639059065139"/></g><g transform="translate(-142,-334) scale(1,1)"><path fill="none" stroke="#000000" d="M 467.6721192537779 551.5087119029793 L 487 541 L 465.90234301024907 534.7639059065139 L 467.6721192537779 551.5087119029793" stroke-miterlimit="10"/></g><g transform="translate(-142,-334) scale(1,1)"><path fill="none" stroke="#000000" d="M 364 468 L 487 511" stroke-miterlimit="10"/></g><g transform="translate(-142,-334) scale(1,1)"><path fill="#FFFFFF" stroke="none" d="M 465.0349644836619 512.2398446539808 L 487 511 L 470.59167187494626 496.34507699984164"/></g><g transform="translate(-142,-334) scale(1,1)"><path fill="none" stroke="#000000" d="M 465.0349644836619 512.2398446539808 L 487 511 L 470.59167187494626 496.34507699984164 L 465.0349644836619 512.2398446539808" stroke-miterlimit="10"/></g><g transform="translate(-142,-334) scale(1,1)"><path fill="none" stroke="#000000" d="M 655 671 L 569 557" stroke-miterlimit="10"/></g><g transform="translate(-142,-334) scale(1,1)"><path fill="#FFFFFF" stroke="none" d="M 587.9617612119638 568.1557882617261 L 569 557 L 574.5196564068717 578.2963234655674"/></g><g transform="translate(-142,-334) scale(1,1)"><path fill="none" stroke="#000000" d="M 587.9617612119638 568.1557882617261 L 569 557 L 574.5196564068717 578.2963234655674 L 587.9617612119638 568.1557882617261" stroke-miterlimit="10"/></g></g></svg>