<?xml version="1.0" encoding="utf-8"?>
<!-- Generator: Adobe Illustrator 23.0.1, SVG Export Plug-In . SVG Version: 6.00 Build 0)  -->
<svg version="1.1" id="Layer_1" xmlns="http://www.w3.org/2000/svg" xmlns:xlink="http://www.w3.org/1999/xlink" x="0px" y="0px"
	 viewBox="0 0 707 488" style="enable-background:new 0 0 707 488;" xml:space="preserve">
<style type="text/css">
	.st0{opacity:0.2;fill:#C0C0C0;enable-background:new    ;}
	.st1{fill:#FFFFFF;}
	.st2{fill:none;stroke:#000000;stroke-miterlimit:10;}
	.st3{font-family:'Arial-BoldMT';}
	.st4{font-size:13px;}
	.st5{font-family:'Arial-BoldItalicMT';}
</style>
<g>
	<g>
		<g>
			<g transform="translate(-190,-326) scale(1,1)">
				<rect x="311" y="383" class="st0" width="123.1" height="44"/>
			</g>
			<g transform="translate(-190,-326) scale(1,1)">
				<rect x="304" y="376" class="st1" width="123.1" height="44"/>
			</g>
			<g transform="translate(-190,-326) scale(1,1)">
				<path class="st2" d="M304,376h123.1v44H304V376z"/>
			</g>
			<g transform="translate(-190,-326) scale(1,1)">
				<path class="st2" d="M304,401h123.1"/>
			</g>
			<g transform="translate(-190,-326) scale(1,1)">
				<path class="st2" d="M304,411h123.1"/>
			</g>
			<g transform="translate(-190,-326) scale(1,1)">
				<g>
					<text transform="matrix(1 0 0 1 313.5337 395.5)" class="st3 st4">ActiviteConnexion</text>
				</g>
			</g>
		</g>
		<g>
			<g transform="translate(-190,-326) scale(1,1)">
				<rect x="207" y="495" class="st0" width="176" height="44"/>
			</g>
			<g transform="translate(-190,-326) scale(1,1)">
				<rect x="200" y="488" class="st1" width="176" height="44"/>
			</g>
			<g transform="translate(-190,-326) scale(1,1)">
				<path class="st2" d="M200,488h176v44H200V488z"/>
			</g>
			<g transform="translate(-190,-326) scale(1,1)">
				<path class="st2" d="M200,513h176"/>
			</g>
			<g transform="translate(-190,-326) scale(1,1)">
				<path class="st2" d="M200,523h176"/>
			</g>
			<g transform="translate(-190,-326) scale(1,1)">
				<g>
					<text transform="matrix(1 0 0 1 222.9746 507.5)" class="st3 st4">ActiviteEnregistrement</text>
				</g>
			</g>
		</g>
		<g>
			<g transform="translate(-190,-326) scale(1,1)">
				<rect x="679" y="383" class="st0" width="122.4" height="44"/>
			</g>
			<g transform="translate(-190,-326) scale(1,1)">
				<rect x="672" y="376" class="st1" width="122.4" height="44"/>
			</g>
			<g transform="translate(-190,-326) scale(1,1)">
				<path class="st2" d="M672,376h122.4v44H672V376z"/>
			</g>
			<g transform="translate(-190,-326) scale(1,1)">
				<path class="st2" d="M672,401h122.4"/>
			</g>
			<g transform="translate(-190,-326) scale(1,1)">
				<path class="st2" d="M672,411h122.4"/>
			</g>
			<g transform="translate(-190,-326) scale(1,1)">
				<g>
					<text transform="matrix(1 0 0 1 681.5432 395.5)" class="st3 st4">ActiviteNavigation</text>
				</g>
			</g>
		</g>
		<g>
			<g transform="translate(-190,-326) scale(1,1)">
				<rect x="783" y="495" class="st0" width="111" height="44"/>
			</g>
			<g transform="translate(-190,-326) scale(1,1)">
				<rect x="776" y="488" class="st1" width="111" height="44"/>
			</g>
			<g transform="translate(-190,-326) scale(1,1)">
				<path class="st2" d="M776,488h111v44H776V488z"/>
			</g>
			<g transform="translate(-190,-326) scale(1,1)">
				<path class="st2" d="M776,513h111"/>
			</g>
			<g transform="translate(-190,-326) scale(1,1)">
				<path class="st2" d="M776,523h111"/>
			</g>
			<g transform="translate(-190,-326) scale(1,1)">
				<g>
					<text transform="matrix(1 0 0 1 785.251 507.5)" class="st3 st4">ActivitePlanning</text>
				</g>
			</g>
		</g>
		<g>
			<g>
				<g transform="translate(-190,-326) scale(1,1)">
					<rect x="495" y="343" class="st0" width="115.2" height="44"/>
				</g>
				<g transform="translate(-190,-326) scale(1,1)">
					<rect x="488" y="336" class="st1" width="115.2" height="44"/>
				</g>
				<g transform="translate(-190,-326) scale(1,1)">
					<path class="st2" d="M488,336h115.2v44H488V336z"/>
				</g>
				<g transform="translate(-190,-326) scale(1,1)">
					<path class="st2" d="M488,361h115.2"/>
				</g>
				<g transform="translate(-190,-326) scale(1,1)">
					<path class="st2" d="M488,371h115.2"/>
				</g>
			</g>
			<g transform="translate(-190,-326) scale(1,1)">
				<g>
					<text transform="matrix(1 0 0 1 503.6909 355.5)" class="st3 st4">ActiviteAccueil</text>
				</g>
			</g>
		</g>
		<g>
			<g>
				<g transform="translate(-190,-326) scale(1,1)">
					<rect x="599" y="671" class="st0" width="102.2" height="44"/>
				</g>
				<g transform="translate(-190,-326) scale(1,1)">
					<rect x="592" y="664" class="st1" width="102.2" height="44"/>
				</g>
				<g transform="translate(-190,-326) scale(1,1)">
					<path class="st2" d="M592,664h102.2v44H592V664z"/>
				</g>
				<g transform="translate(-190,-326) scale(1,1)">
					<path class="st2" d="M592,689h102.2"/>
				</g>
				<g transform="translate(-190,-326) scale(1,1)">
					<path class="st2" d="M592,699h102.2"/>
				</g>
			</g>
			<g transform="translate(-190,-326) scale(1,1)">
				<g>
					<text transform="matrix(1 0 0 1 600.8418 683.5)" class="st3 st4">ActiviteFavoris</text>
				</g>
			</g>
		</g>
		<g>
			<g transform="translate(-190,-326) scale(1,1)">
				<rect x="727" y="607" class="st0" width="129.6" height="44"/>
			</g>
			<g transform="translate(-190,-326) scale(1,1)">
				<rect x="720" y="600" class="st1" width="129.6" height="44"/>
			</g>
			<g transform="translate(-190,-326) scale(1,1)">
				<path class="st2" d="M720,600h129.6v44H720V600z"/>
			</g>
			<g transform="translate(-190,-326) scale(1,1)">
				<path class="st2" d="M720,625h129.6"/>
			</g>
			<g transform="translate(-190,-326) scale(1,1)">
				<path class="st2" d="M720,635h129.6"/>
			</g>
			<g transform="translate(-190,-326) scale(1,1)">
				<g>
					<text transform="matrix(1 0 0 1 730.27 619.5)" class="st3 st4">ActiviteSatisfaction</text>
				</g>
			</g>
		</g>
		<g>
			<g transform="translate(-190,-326) scale(1,1)">
				<rect x="495" y="519" class="st0" width="129.6" height="44"/>
			</g>
			<g transform="translate(-190,-326) scale(1,1)">
				<rect x="488" y="512" class="st1" width="129.6" height="44"/>
			</g>
			<g transform="translate(-190,-326) scale(1,1)">
				<path class="st2" d="M488,512h129.6v44H488V512z"/>
			</g>
			<g transform="translate(-190,-326) scale(1,1)">
				<path class="st2" d="M488,537h129.6"/>
			</g>
			<g transform="translate(-190,-326) scale(1,1)">
				<path class="st2" d="M488,547h129.6"/>
			</g>
			<g transform="translate(-190,-326) scale(1,1)">
				<g>
					<text transform="matrix(1 0 0 1 499.3091 531.5)" class="st5 st4">AppCompatActivity</text>
				</g>
			</g>
		</g>
		<g>
			<g>
				<g transform="translate(-190,-326) scale(1,1)">
					<rect x="519" y="767" class="st0" width="79.8" height="44"/>
				</g>
				<g transform="translate(-190,-326) scale(1,1)">
					<rect x="512" y="760" class="st1" width="79.8" height="44"/>
				</g>
				<g transform="translate(-190,-326) scale(1,1)">
					<path class="st2" d="M512,760h79.8v44H512V760z"/>
				</g>
				<g transform="translate(-190,-326) scale(1,1)">
					<path class="st2" d="M512,785h79.8"/>
				</g>
				<g transform="translate(-190,-326) scale(1,1)">
					<path class="st2" d="M512,795h79.8"/>
				</g>
			</g>
			<g transform="translate(-190,-326) scale(1,1)">
				<g>
					<text transform="matrix(1 0 0 1 519.0137 779.5)" class="st3 st4">Constantes</text>
				</g>
			</g>
		</g>
		<g>
			<g transform="translate(-190,-326) scale(1,1)">
				<rect x="263" y="583" class="st0" width="143" height="44"/>
			</g>
			<g transform="translate(-190,-326) scale(1,1)">
				<rect x="256" y="576" class="st1" width="143" height="44"/>
			</g>
			<g transform="translate(-190,-326) scale(1,1)">
				<path class="st2" d="M256,576h143v44H256V576z"/>
			</g>
			<g transform="translate(-190,-326) scale(1,1)">
				<path class="st2" d="M256,601h143"/>
			</g>
			<g transform="translate(-190,-326) scale(1,1)">
				<path class="st2" d="M256,611h143"/>
			</g>
			<g transform="translate(-190,-326) scale(1,1)">
				<g>
					<text transform="matrix(1 0 0 1 279.0864 595.5)" class="st3 st4">ActiviteReglages</text>
				</g>
			</g>
		</g>
		<g>
			<g>
				<g transform="translate(-190,-326) scale(1,1)">
					<rect x="375" y="663" class="st0" width="167" height="44"/>
					<g transform="translate(-190,-326) scale(1,1)">
						<rect x="558" y="982" class="st1" width="167" height="44"/>
					</g>
				</g>
				<g transform="translate(-190,-326) scale(1,1)">
					<path class="st2" d="M368,656h167v44H368V656z"/>
				</g>
				<g transform="translate(-190,-326) scale(1,1)">
					<path class="st2" d="M368,681h167"/>
				</g>
				<g transform="translate(-190,-326) scale(1,1)">
					<path class="st2" d="M368,691h167"/>
				</g>
			</g>
			<g transform="translate(-190,-326) scale(1,1)">
				<g>
					<text transform="matrix(1 0 0 1 394.7837 675.5)" class="st3 st4">ActiviteInformations</text>
				</g>
			</g>
		</g>
		<g>
			<g>
				<g transform="translate(-190,-326) scale(1,1)">
					<path class="st2" d="M629,663l-63-106"/>
				</g>
				<g transform="translate(-190,-326) scale(1,1)">
					<path class="st1" d="M583.6,570.2L566,557l3.1,21.8"/>
				</g>
				<g transform="translate(-190,-326) scale(1,1)">
					<path class="st2" d="M583.6,570.2L566,557l3.1,21.8L583.6,570.2"/>
				</g>
			</g>
			<g>
				<g transform="translate(-190,-326) scale(1,1)">
					<path class="st2" d="M546,381l5,130"/>
				</g>
				<g transform="translate(-190,-326) scale(1,1)">
					<path class="st1" d="M541.8,491l9.2,20l7.6-20.6"/>
				</g>
				<g transform="translate(-190,-326) scale(1,1)">
					<path class="st2" d="M541.8,491l9.2,20l7.6-20.6L541.8,491"/>
				</g>
			</g>
			<g>
				<g transform="translate(-190,-326) scale(1,1)">
					<path class="st2" d="M702,421l-119,90"/>
				</g>
				<g transform="translate(-190,-326) scale(1,1)">
					<path class="st1" d="M594.1,492L583,511l21.3-5.5"/>
				</g>
				<g transform="translate(-190,-326) scale(1,1)">
					<path class="st2" d="M594.1,492L583,511l21.3-5.5L594.1,492"/>
				</g>
			</g>
			<g>
				<g transform="translate(-190,-326) scale(1,1)">
					<path class="st2" d="M775,515l-156,13"/>
				</g>
				<g transform="translate(-190,-326) scale(1,1)">
					<path class="st1" d="M638.6,517.9L619,528l21,6.7"/>
				</g>
				<g transform="translate(-190,-326) scale(1,1)">
					<path class="st2" d="M638.6,517.9L619,528l21,6.7L638.6,517.9"/>
				</g>
			</g>
			<g>
				<g transform="translate(-190,-326) scale(1,1)">
					<path class="st2" d="M377,518l110,10"/>
				</g>
				<g transform="translate(-190,-326) scale(1,1)">
					<path class="st1" d="M466,534.5l21-6.5l-19.5-10.2"/>
				</g>
				<g transform="translate(-190,-326) scale(1,1)">
					<path class="st2" d="M466,534.5l21-6.5l-19.5-10.2L466,534.5"/>
				</g>
			</g>
			<g>
				<g transform="translate(-190,-326) scale(1,1)">
					<path class="st2" d="M397,421l123,90"/>
				</g>
				<g transform="translate(-190,-326) scale(1,1)">
					<path class="st1" d="M498.6,505.8L520,511l-11.4-18.8"/>
				</g>
				<g transform="translate(-190,-326) scale(1,1)">
					<path class="st2" d="M498.6,505.8L520,511l-11.4-18.8L498.6,505.8"/>
				</g>
			</g>
			<g>
				<g transform="translate(-190,-326) scale(1,1)">
					<path class="st2" d="M723,599l-110-42"/>
				</g>
				<g transform="translate(-190,-326) scale(1,1)">
					<path class="st1" d="M635,556.4l-22,0.6l16,15.1"/>
				</g>
				<g transform="translate(-190,-326) scale(1,1)">
					<path class="st2" d="M635,556.4l-22,0.6l16,15.1L635,556.4"/>
				</g>
			</g>
			<g>
				<g transform="translate(-190,-326) scale(1,1)">
					<path class="st2" d="M400,577l87-25"/>
				</g>
				<g transform="translate(-190,-326) scale(1,1)">
					<path class="st1" d="M469.8,565.7L487,552l-21.9-2.5"/>
				</g>
				<g transform="translate(-190,-326) scale(1,1)">
					<path class="st2" d="M469.8,565.7L487,552l-21.9-2.5L469.8,565.7"/>
				</g>
			</g>
			<g>
				<g transform="translate(-190,-326) scale(1,1)">
					<path class="st2" d="M467,655l69-98"/>
				</g>
				<g transform="translate(-190,-326) scale(1,1)">
					<path class="st1" d="M531.2,578.5L536,557l-18.6,11.8"/>
				</g>
				<g transform="translate(-190,-326) scale(1,1)">
					<path class="st2" d="M531.2,578.5L536,557l-18.6,11.8L531.2,578.5"/>
				</g>
			</g>
		</g>
	</g>
</g>
</svg>
