<svg id="Layer_1" data-name="Layer 1" xmlns="http://www.w3.org/2000/svg" viewBox="0 0 1057 1513"><defs><style>.cls-1,.cls-8{fill:none;stroke:#000;stroke-miterlimit:10;}.cls-2{fill:#fff;}.cls-3,.cls-4,.cls-5,.cls-6,.cls-9{isolation:isolate;}.cls-3,.cls-4{font-size:13px;}.cls-3,.cls-9{font-family:ArialMT, Arial;}.cls-4,.cls-6{font-family:Arial-BoldMT, Arial;font-weight:700;}.cls-5{fill:silver;opacity:0.2;}.cls-6,.cls-9{font-size:20px;}.cls-7{letter-spacing:-0.0181em;}.cls-8{stroke-dasharray:3;}.cls-10{letter-spacing:-0.0552em;}.cls-11{letter-spacing:-0.0742em;}</style></defs><title>SequenceDiagram1</title><path class="cls-1" d="M10,10H1066V1522H10V10" transform="translate(-9.5 -9.5)"/><path class="cls-2" d="M10,10V32H200.8843l11-11V10H10" transform="translate(-9.5 -9.5)"/><path class="cls-1" d="M10,10V32H200.8843l11-11V10H10" transform="translate(-9.5 -9.5)"/><text class="cls-3" transform="translate(71.479 18)">SequenceDiagram1</text><text class="cls-4" transform="translate(5.5 18)">interaction</text><rect class="cls-5" x="87.5" y="47.5" width="91.998" height="39"/><rect class="cls-2" x="80.5" y="40.5" width="91.998" height="39"/><path class="cls-1" d="M90,50h91.998V89H90Z" transform="translate(-9.5 -9.5)"/><text class="cls-6" transform="translate(93.335 67)"><tspan class="cls-7">V</tspan><tspan x="12.9785" y="0">isiteur</tspan></text><path class="cls-8" d="M136.5,90V1490" transform="translate(-9.5 -9.5)"/><rect class="cls-5" x="455.5" y="47.5" width="152.0078" height="39"/><rect class="cls-2" x="448.5" y="40.5" width="152.0078" height="39"/><path class="cls-1" d="M458,50H610.0078V89H458Z" transform="translate(-9.5 -9.5)"/><text class="cls-6" transform="translate(462.4482 67)">BDD <tspan class="cls-7" x="48.8867" y="0">V</tspan><tspan x="61.8652" y="0">isiteurs</tspan></text><path class="cls-8" d="M535.5,90V1482" transform="translate(-9.5 -9.5)"/><rect class="cls-5" x="879.5" y="47.5" width="132.3691" height="39"/><rect class="cls-2" x="872.5" y="40.5" width="132.3691" height="39"/><path class="cls-1" d="M882,50h132.3691V89H882Z" transform="translate(-9.5 -9.5)"/><text class="cls-6" transform="translate(884.7783 67)">BDD Ecoles</text><path class="cls-8" d="M949.5,90V1482" transform="translate(-9.5 -9.5)"/><text class="cls-9" transform="translate(250 96)">1 : Se connecter</text><path class="cls-1" d="M136,106H528" transform="translate(-9.5 -9.5)"/><path d="M517.8373,110.21,528,106l-10.1627-4.21" transform="translate(-9.5 -9.5)"/><path class="cls-1" d="M517.8373,110.21,528,106l-10.1627-4.21v8.419" transform="translate(-9.5 -9.5)"/><rect class="cls-2" x="518.5" y="96.5" width="13" height="28"/><path class="cls-1" d="M528,106h13v28H528Z" transform="translate(-9.5 -9.5)"/><text class="cls-9" transform="translate(166 246)">2 : Utiliser un réseau social</text><path class="cls-1" d="M136,234h30v20H142" transform="translate(-9.5 -9.5)"/><path d="M152.1627,249.7905,142,254l10.1627,4.2095" transform="translate(-9.5 -9.5)"/><path class="cls-1" d="M152.1627,249.7905,142,254l10.1627,4.2095v-8.419" transform="translate(-9.5 -9.5)"/><rect class="cls-2" x="119.5" y="244.5" width="13" height="28"/><path class="cls-1" d="M129,254h13v28H129Z" transform="translate(-9.5 -9.5)"/><text class="cls-9" transform="translate(213 328)">3 : Remplir un formulaire</text><path class="cls-1" d="M136,338H528" transform="translate(-9.5 -9.5)"/><path d="M517.8373,342.21,528,338l-10.1627-4.2095" transform="translate(-9.5 -9.5)"/><path class="cls-1" d="M517.8373,342.21,528,338l-10.1627-4.2095v8.419" transform="translate(-9.5 -9.5)"/><rect class="cls-2" x="518.5" y="328.5" width="13" height="28"/><path class="cls-1" d="M528,338h13v28H528Z" transform="translate(-9.5 -9.5)"/><text class="cls-9" transform="translate(167 435)">4 : Naviguer sur la carte</text><path class="cls-1" d="M136,426h30v20H142" transform="translate(-9.5 -9.5)"/><path d="M152.1627,441.7905,142,446l10.1627,4.2095" transform="translate(-9.5 -9.5)"/><path class="cls-1" d="M152.1627,441.7905,142,446l10.1627,4.2095v-8.419" transform="translate(-9.5 -9.5)"/><rect class="cls-2" x="119.5" y="436.5" width="13" height="28"/><path class="cls-1" d="M129,446h13v28H129Z" transform="translate(-9.5 -9.5)"/><text class="cls-9" transform="translate(168 563)">5 :<tspan class="cls-10" x="22.2363" y="0"> </tspan><tspan x="26.6895" y="0">A</tspan><tspan class="cls-7" x="40.0293" y="0">f</tspan><tspan x="45.2246" y="0">ficher les marqueurs des établissements</tspan></text><path class="cls-1" d="M136,554h30v20H142" transform="translate(-9.5 -9.5)"/><path d="M152.1627,569.7905,142,574l10.1627,4.21" transform="translate(-9.5 -9.5)"/><path class="cls-1" d="M152.1627,569.7905,142,574l10.1627,4.21v-8.419" transform="translate(-9.5 -9.5)"/><rect class="cls-2" x="119.5" y="564.5" width="13" height="28"/><path class="cls-1" d="M129,574h13v28H129Z" transform="translate(-9.5 -9.5)"/><text class="cls-9" transform="translate(175 698)">6 :<tspan class="cls-10" x="22.2363" y="0"> </tspan><tspan x="26.6895" y="0">A</tspan><tspan class="cls-7" x="40.0293" y="0">f</tspan><tspan x="45.2246" y="0">ficher un itinérarire personnalisé</tspan></text><path class="cls-1" d="M136,690h30v20H142" transform="translate(-9.5 -9.5)"/><path d="M152.1627,705.7905,142,710l10.1627,4.21" transform="translate(-9.5 -9.5)"/><path class="cls-1" d="M152.1627,705.7905,142,710l10.1627,4.21v-8.419" transform="translate(-9.5 -9.5)"/><rect class="cls-2" x="119.5" y="700.5" width="13" height="28"/><path class="cls-1" d="M129,710h13v28H129Z" transform="translate(-9.5 -9.5)"/><text class="cls-9" transform="translate(397 832)">7 :<tspan class="cls-10" x="22.2363" y="0"> </tspan><tspan x="26.6895" y="0">A</tspan><tspan class="cls-7" x="40.0293" y="0">f</tspan><tspan x="45.2246" y="0">ficher les établissements</tspan></text><path class="cls-1" d="M136,842H942" transform="translate(-9.5 -9.5)"/><path d="M931.8373,846.21,942,842l-10.1627-4.21" transform="translate(-9.5 -9.5)"/><path class="cls-1" d="M931.8373,846.21,942,842l-10.1627-4.21v8.419" transform="translate(-9.5 -9.5)"/><rect class="cls-2" x="932.5" y="832.5" width="13" height="28"/><path class="cls-1" d="M942,842h13v28H942Z" transform="translate(-9.5 -9.5)"/><text class="cls-9" transform="translate(417 936)">8 :<tspan class="cls-10" x="22.2363" y="0"> </tspan><tspan x="26.6895" y="0">A</tspan><tspan class="cls-7" x="40.0293" y="0">f</tspan><tspan x="45.2246" y="0">ficher les formations</tspan></text><path class="cls-1" d="M136,946H942" transform="translate(-9.5 -9.5)"/><path d="M931.8373,950.21,942,946l-10.1627-4.21" transform="translate(-9.5 -9.5)"/><path class="cls-1" d="M931.8373,950.21,942,946l-10.1627-4.21v8.419" transform="translate(-9.5 -9.5)"/><rect class="cls-2" x="932.5" y="936.5" width="13" height="28"/><path class="cls-1" d="M942,946h13v28H942Z" transform="translate(-9.5 -9.5)"/><text class="cls-9" transform="translate(167 1075)">9 :<tspan class="cls-10" x="22.2363" y="0"> </tspan><tspan x="26.6895" y="0">A</tspan><tspan class="cls-7" x="40.0293" y="0">f</tspan><tspan x="45.2246" y="0">ficher le planning de la JPO</tspan></text><path class="cls-1" d="M136,1066h30v20H142" transform="translate(-9.5 -9.5)"/><path d="M152.1627,1081.7905,142,1086l10.1627,4.2095" transform="translate(-9.5 -9.5)"/><path class="cls-1" d="M152.1627,1081.7905,142,1086l10.1627,4.2095v-8.419" transform="translate(-9.5 -9.5)"/><rect class="cls-2" x="119.5" y="1076.5" width="13" height="28"/><path class="cls-1" d="M129,1086h13v28H129Z" transform="translate(-9.5 -9.5)"/><path class="cls-1" d="M136,1218H942" transform="translate(-9.5 -9.5)"/><path d="M931.8373,1222.21,942,1218l-10.1627-4.2095" transform="translate(-9.5 -9.5)"/><path class="cls-1" d="M931.8373,1222.21,942,1218l-10.1627-4.2095v8.419" transform="translate(-9.5 -9.5)"/><text class="cls-9" transform="translate(364 1208)">10 : Mettre des évènements en favori</text><rect class="cls-2" x="932.5" y="1208.5" width="13" height="28"/><path class="cls-1" d="M942,1218h13v28H942Z" transform="translate(-9.5 -9.5)"/><text class="cls-9" transform="translate(168 1331)"><tspan class="cls-11">1</tspan><tspan x="9.6387" y="0">1 : </tspan><tspan class="cls-7" x="37.4316" y="0">V</tspan><tspan x="50.4102" y="0">isualiser les favoris</tspan></text><path class="cls-1" d="M136,1322h30v20H142" transform="translate(-9.5 -9.5)"/><path d="M152.1627,1337.7905,142,1342l10.1627,4.2095" transform="translate(-9.5 -9.5)"/><path class="cls-1" d="M152.1627,1337.7905,142,1342l10.1627,4.2095v-8.419" transform="translate(-9.5 -9.5)"/><rect class="cls-2" x="119.5" y="1332.5" width="13" height="28"/><path class="cls-1" d="M129,1342h13v28H129Z" transform="translate(-9.5 -9.5)"/><text class="cls-9" transform="translate(168 1435)">12 : Remplir un formulaire de satisfaction</text><path class="cls-1" d="M136,1426h30v20H142" transform="translate(-9.5 -9.5)"/><path d="M152.1627,1441.7905,142,1446l10.1627,4.2095" transform="translate(-9.5 -9.5)"/><path class="cls-1" d="M152.1627,1441.7905,142,1446l10.1627,4.2095v-8.419" transform="translate(-9.5 -9.5)"/><rect class="cls-2" x="119.5" y="1436.5" width="13" height="28"/><path class="cls-1" d="M129,1446h13v28H129Z" transform="translate(-9.5 -9.5)"/><path class="cls-1" d="M58,138H578V386H58V138" transform="translate(-9.5 -9.5)"/><path class="cls-2" d="M58,138v29H219l14.5-14.5V138H58" transform="translate(-9.5 -9.5)"/><path class="cls-1" d="M58,138v29H219l14.5-14.5V138H58" transform="translate(-9.5 -9.5)"/><text class="cls-9" transform="translate(91.7461 153)">S&apos;enregistrer</text><text class="cls-6" transform="translate(53.5 153)">seq</text><path class="cls-1" d="M66,186H258V290H66V186" transform="translate(-9.5 -9.5)"/><path class="cls-2" d="M66,186v22h77.4326l11-11V186H66" transform="translate(-9.5 -9.5)"/><path class="cls-1" d="M66,186v22h77.4326l11-11V186H66" transform="translate(-9.5 -9.5)"/><text class="cls-3" transform="translate(88.46 194)">Extend</text><text class="cls-4" transform="translate(61.5 194)">seq</text><path class="cls-1" d="M90,298H546v80H90V298" transform="translate(-9.5 -9.5)"/><path class="cls-2" d="M90,298v22h77.4326l11-11V298H90" transform="translate(-9.5 -9.5)"/><path class="cls-1" d="M90,298v22h77.4326l11-11V298H90" transform="translate(-9.5 -9.5)"/><text class="cls-3" transform="translate(112.46 306)">Extend</text><text class="cls-4" transform="translate(85.5 306)">seq</text><path class="cls-1" d="M58,514H241V617H58V514" transform="translate(-9.5 -9.5)"/><path class="cls-2" d="M58,514v22h77.4326l11-11V514H58" transform="translate(-9.5 -9.5)"/><path class="cls-1" d="M58,514v22h77.4326l11-11V514H58" transform="translate(-9.5 -9.5)"/><text class="cls-3" transform="translate(80.46 522)">Extend</text><text class="cls-4" transform="translate(53.5 522)">seq</text><path class="cls-1" d="M58,658H250V769H58V658" transform="translate(-9.5 -9.5)"/><path class="cls-2" d="M58,658v22h77.4326l11-11V658H58" transform="translate(-9.5 -9.5)"/><path class="cls-1" d="M58,658v22h77.4326l11-11V658H58" transform="translate(-9.5 -9.5)"/><text class="cls-3" transform="translate(80.46 666)">Extend</text><text class="cls-4" transform="translate(53.5 666)">seq</text><path class="cls-1" d="M58,890H970v120H58V890" transform="translate(-9.5 -9.5)"/><path class="cls-2" d="M58,890v22h77.4326l11-11V890H58" transform="translate(-9.5 -9.5)"/><path class="cls-1" d="M58,890v22h77.4326l11-11V890H58" transform="translate(-9.5 -9.5)"/><text class="cls-3" transform="translate(80.46 898)">Extend</text><text class="cls-4" transform="translate(53.5 898)">seq</text><path class="cls-1" d="M66,1154h936v136H66V1154" transform="translate(-9.5 -9.5)"/><path class="cls-2" d="M66,1154v22h77.4326l11-11v-11H66" transform="translate(-9.5 -9.5)"/><path class="cls-1" d="M66,1154v22h77.4326l11-11v-11H66" transform="translate(-9.5 -9.5)"/><text class="cls-3" transform="translate(88.46 1162)">Extend</text><text class="cls-4" transform="translate(61.5 1162)">seq</text></svg>