<svg xmlns="http://www.w3.org/2000/svg" viewBox="0 0 142.7324 142.7319"><defs><style>.cls-1{fill:#3e2b86;stroke:#3e2b86;stroke-miterlimit:10;}.cls-2{fill:#fff;}</style></defs><title>edit_vector</title><g id="Layer_2" data-name="Layer 2"><g id="Calque_1" data-name="Calque 1"><circle class="cls-1" cx="71.3662" cy="71.3658" r="70.8662" transform="translate(-21.7954 32.5441) rotate(-22.3777)"/><path class="cls-2" d="M98.127,21.76,27.9531,91.9336l2.46,2.46-8.0562,17.0323a6.7721,6.7721,0,0,0,1.3741,7.5752,6.5286,6.5286,0,0,0,4.7187,1.9707,7.0067,7.0067,0,0,0,2.8755-.6055l17.0142-8.0469,2.4589,2.46,70.1744-70.1739ZM28.2432,114.0976c-.0152.0362-.0279.0586-.0342.0723Zm.3364.418a.3461.3461,0,0,1-.2778-.084c-.0494-.05-.1226-.123-.0494-.3535L35.2666,99.247l8.2187,8.2188Zm22.2187-8.8769L37.0937,91.9336l3.3619-3.3614L54.16,102.2763Zm7.9322-7.9317L45.0259,84.0019,89.9346,39.0928,103.64,52.7969ZM94.5049,34.5224l3.6221-3.6215,13.7041,13.7045L108.21,48.2265Z"/></g></g></svg>