<svg xmlns="http://www.w3.org/2000/svg" viewBox="0 0 213.5976 213.5976"><defs><style>.cls-1,.cls-4{fill:#29235c;}.cls-1{stroke:#2d2e83;}.cls-1,.cls-3,.cls-4{stroke-miterlimit:10;}.cls-2{fill:#9a9cae;}.cls-3{fill:none;stroke-width:5px;}.cls-3,.cls-4{stroke:#29235c;}</style></defs><title>Asset 1</title><g id="Layer_2" data-name="Layer 2"><g id="logo2"><path class="cls-1" d="M106.7988.5A106.2988,106.2988,0,1,0,213.0976,106.7988,106.2984,106.2984,0,0,0,106.7988.5Zm-.5776,133.1084c-25.6416,0-46.4282-21.1651-46.4282-47.2735,0-26.1064,20.7866-47.2724,46.4282-47.2724s46.4277,21.166,46.4277,47.2724C152.6489,112.4433,131.8623,133.6084,106.2212,133.6084Z"/><path class="cls-2" d="M106.7988,27.5605a59.4324,59.4324,0,0,0-47.57,95.0557l47.57,63.4218,47.57-63.4218a59.4324,59.4324,0,0,0-47.57-95.0557Zm0,99.0479A39.6182,39.6182,0,1,1,146.418,86.99,39.62,39.62,0,0,1,106.7988,126.6084Z"/><path class="cls-3" d="M145.916,87.5634a39.1172,39.1172,0,1,1-39.1172-39.1162A39.1172,39.1172,0,0,1,145.916,87.5634Z"/><polygon class="cls-4" points="123.15 60.026 90.107 120.738 104.869 124.053 123.15 60.026"/><path class="cls-4" d="M88.8515,123.0507l.1465-.2685-.0879.8359,15.1114,3.3916-.125.4366h2.1562l.0625-1.1768.3594.2217L130.998,40.61l-43.81,80.502ZM123.15,60.0263l-18.2813,64.0264-14.7617-3.3145Z"/></g></g></svg>