<svg xmlns="http://www.w3.org/2000/svg" viewBox="0 0 142.7324 142.7324"><defs><style>.cls-1{fill:#b3b5b7;stroke:#b3b5b7;stroke-miterlimit:10;}.cls-2{fill:#fff;}</style></defs><title>edit_1_vector</title><g id="Layer_2" data-name="Layer 2"><g id="Calque_1" data-name="Calque 1"><path class="cls-1" d="M142.2324,71.3652A70.8662,70.8662,0,1,1,71.3662.5,70.8672,70.8672,0,0,1,142.2324,71.3652Z"/><path class="cls-2" d="M98.1269,21.76,27.9531,91.9336l2.46,2.46-8.0556,17.0323a6.77,6.77,0,0,0,1.373,7.5752,6.5292,6.5292,0,0,0,4.7188,1.9707,7.0059,7.0059,0,0,0,2.876-.6055L48.34,112.3193l2.459,2.46,70.1738-70.1738ZM28.2431,114.0976c-.0146.0362-.0283.0586-.0342.0723Zm.3369.418a.3471.3471,0,0,1-.2783-.084c-.05-.05-.1221-.123-.05-.3535l7.0147-14.831,8.2187,8.2187Zm22.2188-8.8769L37.0937,91.9336l3.3613-3.3613L54.16,102.2764ZM58.73,97.707,45.0254,84.0019,89.9345,39.0928,103.64,52.7969ZM94.5048,34.5225l3.6221-3.6216L111.831,44.6055,108.21,48.2266Z"/></g></g></svg>