<svg xmlns="http://www.w3.org/2000/svg" viewBox="0 0 213.5982 213.5976"><defs><style>.cls-1,.cls-4{fill:#29235c;}.cls-1{stroke:#2d2e83;}.cls-1,.cls-3,.cls-4{stroke-miterlimit:10;}.cls-2{fill:#fff;}.cls-3{fill:none;stroke-width:5px;}.cls-3,.cls-4{stroke:#29235c;}</style></defs><title>Asset 2</title><g id="Layer_2" data-name="Layer 2"><g id="logo2"><path class="cls-1" d="M106.7994.5A106.2988,106.2988,0,1,0,213.0982,106.7988,106.2989,106.2989,0,0,0,106.7994.5Zm-.5782,133.1084c-25.6416,0-46.4277-21.1651-46.4277-47.2735,0-26.1064,20.7861-47.2724,46.4277-47.2724s46.4278,21.166,46.4278,47.2724C152.649,112.4433,131.8619,133.6084,106.2212,133.6084Z"/><path class="cls-2" d="M106.7994,27.5605a59.4324,59.4324,0,0,0-47.57,95.0557l47.57,63.4218,47.57-63.4218a59.4324,59.4324,0,0,0-47.57-95.0557Zm0,99.0479A39.6182,39.6182,0,1,1,146.4185,86.99,39.62,39.62,0,0,1,106.7994,126.6084Z"/><path class="cls-3" d="M145.9166,87.5634a39.1172,39.1172,0,1,1-39.1172-39.1162A39.1172,39.1172,0,0,1,145.9166,87.5634Z"/><polygon class="cls-4" points="123.151 60.026 90.108 120.738 104.87 124.053 123.151 60.026"/><path class="cls-4" d="M88.8521,123.0507l.1465-.2685-.0879.8359L104.022,127.01l-.125.4365h2.1563l.0625-1.1767.3593.2217L130.9986,40.61,87.188,121.1123Zm34.2988-63.0244L104.87,124.0527,90.108,120.7382Z"/></g></g></svg>